<svg width="30" height="18" viewBox="0 0 30 18" fill="none" xmlns="http://www.w3.org/2000/svg">
<path fill-rule="evenodd" clip-rule="evenodd" d="M3 0H27C28.6569 0 30 1.34315 30 3V15C30 16.6569 28.6569 18 27 18H3C1.34315 18 0 16.6569 0 15V3C0 1.34315 1.34315 0 3 0ZM3 1C1.89543 1 1 1.89543 1 3V15C1 16.1046 1.89543 17 3 17H27C28.1046 17 29 16.1046 29 15V3C29 1.89543 28.1046 1 27 1H3Z" fill="#F0F0F0"/>
<path d="M27.1986 1H2.80139C1.80651 1 1 1.80534 1 2.79879V15.2012C1 16.1947 1.80651 17 2.80139 17H27.1986C28.1935 17 29 16.1947 29 15.2012V2.79879C29 1.80534 28.1935 1 27.1986 1Z" fill="white"/>
<path d="M18.727 7.90736C18.29 7.72796 17.8271 7.62776 17.3545 7.64877C16.0759 7.7021 14.8928 9.092 13.768 9.64635C12.9263 10.0601 12.0378 10.2556 11.248 10.0051C11.1606 9.68513 11.1152 9.34736 11.1152 8.99988C11.1152 6.85847 12.8551 5.12109 14.9996 5.12109C16.7638 5.12109 18.2544 6.29766 18.727 7.90736Z" fill="#FE4C55"/>
<path d="M18.8841 8.99938C18.8841 11.1408 17.1442 12.8782 14.9997 12.8782C13.2032 12.8782 11.6899 11.6596 11.248 10.0046C12.0379 10.2551 12.9264 10.0596 13.768 9.64584C14.8929 9.0915 16.076 7.7016 17.3546 7.64827C17.8272 7.62726 18.2901 7.72746 18.7271 7.90685C18.8291 8.25271 18.8841 8.61958 18.8841 8.99938Z" fill="#41479B"/>
<path d="M5.81369 5.48524C5.67611 5.37211 5.65507 5.16847 5.76837 5.0311L7.56328 2.84281C7.67658 2.70544 7.88051 2.68443 8.01808 2.79756C8.15565 2.91069 8.17669 3.11433 8.0634 3.2517L6.26848 5.43998C6.15519 5.57736 5.95126 5.59837 5.81369 5.48524Z" fill="black"/>
<path d="M6.81564 6.30457C6.67807 6.19144 6.65703 5.98781 6.77032 5.85043L8.56524 3.66215C8.67853 3.52478 8.88246 3.50377 9.02003 3.6169C9.1576 3.73003 9.17865 3.93366 9.06535 4.07104L7.27044 6.25932C7.15714 6.39669 6.95321 6.4177 6.81564 6.30457Z" fill="black"/>
<path d="M7.81759 7.12391C7.68002 7.01078 7.65898 6.80714 7.77228 6.66977L9.56719 4.48149C9.68048 4.34411 9.88441 4.3231 10.022 4.43623C10.1596 4.54936 10.1806 4.753 10.0673 4.89037L8.27239 7.07866C8.1591 7.21603 7.95517 7.23704 7.81759 7.12391Z" fill="black"/>
<path d="M21.1688 12.0544C21.0264 11.9461 20.9988 11.7441 21.1073 11.6019L21.5961 10.9586C21.7045 10.8164 21.9068 10.7889 22.0493 10.8972C22.1917 11.0055 22.2192 11.2075 22.1108 11.3498L21.622 11.993C21.5135 12.1352 21.3112 12.1627 21.1688 12.0544Z" fill="black"/>
<path d="M19.8954 13.7263C19.7529 13.618 19.7254 13.416 19.8338 13.2738L20.3226 12.6305C20.4311 12.4883 20.6334 12.4608 20.7758 12.5691C20.9182 12.6774 20.9458 12.8794 20.8373 13.0216L20.3485 13.6649C20.2401 13.8071 20.0378 13.8346 19.8954 13.7263Z" fill="black"/>
<path d="M22.1981 12.8366C22.0557 12.7283 22.0281 12.5263 22.1366 12.3841L22.6254 11.7409C22.7338 11.5986 22.9361 11.5712 23.0785 11.6795C23.221 11.7877 23.2485 11.9898 23.1401 12.132L22.6513 12.7752C22.5428 12.9174 22.3405 12.9449 22.1981 12.8366Z" fill="black"/>
<path d="M20.9266 14.5095C20.7842 14.4012 20.7567 14.1992 20.8651 14.057L21.3539 13.4137C21.4623 13.2715 21.6646 13.244 21.8071 13.3523C21.9495 13.4606 21.977 13.6626 21.8686 13.8048L21.3798 14.4481C21.2713 14.5903 21.069 14.6178 20.9266 14.5095Z" fill="black"/>
<path d="M23.2293 13.6189C23.0869 13.5106 23.0594 13.3086 23.1678 13.1663L23.6566 12.5231C23.7651 12.3809 23.9674 12.3534 24.1098 12.4617C24.2522 12.57 24.2797 12.772 24.1713 12.9142L23.6825 13.5574C23.5741 13.6997 23.3718 13.7271 23.2293 13.6189Z" fill="black"/>
<path d="M21.9559 15.2927C21.8135 15.1844 21.786 14.9824 21.8944 14.8402L22.3832 14.1969C22.4916 14.0547 22.6939 14.0272 22.8364 14.1355C22.9788 14.2438 23.0063 14.4458 22.8979 14.588L22.4091 15.2313C22.3006 15.3735 22.0983 15.401 21.9559 15.2927Z" fill="black"/>
<path d="M7.83888 15.2089C7.68997 15.3074 7.48928 15.267 7.39055 15.1183L5.82546 12.7604C5.72674 12.6117 5.7672 12.4113 5.9161 12.3127C6.065 12.2141 6.2657 12.2545 6.36442 12.4032L7.92951 14.7612C8.02824 14.9099 7.98778 15.1103 7.83888 15.2089Z" fill="black"/>
<path d="M7.83573 12.7875C7.68683 12.8861 7.48613 12.8457 7.3874 12.697L6.9407 12.0231C6.84197 11.8744 6.88243 11.674 7.03133 11.5754C7.18024 11.4768 7.38093 11.5172 7.47966 11.6659L7.92636 12.3398C8.02509 12.4885 7.98463 12.6889 7.83573 12.7875Z" fill="black"/>
<path d="M8.99588 14.5395C8.84698 14.638 8.64629 14.5976 8.54756 14.449L8.10086 13.775C8.00213 13.6263 8.04259 13.4259 8.19149 13.3273C8.34039 13.2288 8.54109 13.2692 8.63982 13.4178L9.08652 14.0918C9.18525 14.2405 9.14479 14.4409 8.99588 14.5395Z" fill="black"/>
<path d="M9.99708 13.7821C9.84818 13.8807 9.64748 13.8403 9.54876 13.6916L7.98367 11.3336C7.88494 11.1849 7.9254 10.9845 8.07431 10.8859C8.22321 10.7873 8.4239 10.8278 8.52263 10.9764L10.0877 13.3344C10.1864 13.4831 10.146 13.6835 9.99708 13.7821Z" fill="black"/>
<path d="M20.7559 5.45835C20.6103 5.56017 20.408 5.52623 20.3044 5.37916L19.8399 4.71815C19.7379 4.57269 19.7719 4.37067 19.9192 4.26724C20.0664 4.1638 20.2671 4.19936 20.3707 4.34643L20.8352 5.00744C20.9372 5.15289 20.9032 5.35491 20.7559 5.45835Z" fill="black"/>
<path d="M21.9649 7.1771C21.8192 7.27892 21.6169 7.24498 21.5134 7.09791L21.0488 6.4369C20.9469 6.29144 20.9809 6.08942 21.1282 5.98599C21.2754 5.88255 21.4761 5.91811 21.5797 6.06518L22.0442 6.72619C22.1462 6.87164 22.1122 7.07367 21.9649 7.1771Z" fill="black"/>
<path d="M22.877 3.973C22.7314 4.07482 22.529 4.04088 22.4255 3.89381L21.961 3.2328C21.859 3.08734 21.893 2.88532 22.0403 2.78189C22.1875 2.67845 22.3882 2.71401 22.4918 2.86108L22.9563 3.52209C23.0583 3.66754 23.0243 3.86956 22.877 3.973Z" fill="black"/>
<path d="M24.086 5.6937C23.9403 5.79552 23.738 5.76158 23.6344 5.61451L23.1699 4.9535C23.068 4.80804 23.102 4.60602 23.2492 4.50259C23.3965 4.39916 23.5972 4.43471 23.7008 4.58178L24.1653 5.24279C24.2673 5.38825 24.2333 5.59027 24.086 5.6937Z" fill="black"/>
<path d="M22.9766 6.36916C22.8309 6.47098 22.6286 6.43704 22.525 6.28997L20.8985 3.97401C20.7965 3.82855 20.8305 3.62653 20.9778 3.5231C21.125 3.41966 21.3257 3.45522 21.4293 3.60229L23.0559 5.91825C23.1579 6.0637 23.1239 6.26572 22.9766 6.36916Z" fill="black"/>
</svg>
