<svg width="20" height="20" viewBox="0 0 20 20" fill="none" xmlns="http://www.w3.org/2000/svg">
<path d="M11.0836 5L10.9143 11.6016H9.24765L9.07838 5H11.0836ZM10.094 14.5443C9.48202 14.5443 8.98723 14.0495 9.00025 13.4505C8.98723 12.8516 9.48202 12.3698 10.094 12.3698C10.6669 12.3698 11.1747 12.8516 11.1747 13.4505C11.1747 14.0495 10.6669 14.5443 10.094 14.5443Z" fill="white"/>
<path d="M19.9999 8.86122C20.0024 8.69847 19.9518 8.64564 19.7994 8.62182C19.0736 8.5092 18.3505 8.3777 17.6238 8.27182C17.2594 8.21877 17.0301 8.03467 16.9108 7.69254C16.7835 7.32816 16.6327 6.973 16.4396 6.63874C16.2373 6.28829 16.2755 5.97292 16.5068 5.6454C16.9353 5.0396 17.3435 4.41941 17.76 3.80529C17.8083 3.73403 17.8726 3.67918 17.7703 3.58409C17.2043 3.05787 16.6453 2.52422 16.0856 1.99147C16.0305 1.9391 15.9896 1.91819 15.9159 1.96899C15.2566 2.42464 14.5858 2.86432 13.9371 3.33435C13.6696 3.52812 13.4138 3.59196 13.1093 3.47597C12.8256 3.36785 12.5417 3.26017 12.2569 3.15497C11.9761 3.05135 11.8096 2.85691 11.7484 2.56131C11.5841 1.76983 11.4092 0.980601 11.2485 0.188448C11.2191 0.0439093 11.1642 -0.000823545 11.017 0.000749971C10.2961 0.00839276 9.57526 0.00974149 8.85461 7.56068e-05C8.69367 -0.00217227 8.63995 0.045258 8.61635 0.20216C8.50531 0.935868 8.39629 1.67025 8.25512 2.39856C8.19488 2.70855 8.07575 3.01808 7.73656 3.15183C7.42658 3.27389 7.11391 3.3892 6.80192 3.50632C6.53488 3.6068 6.29504 3.55465 6.07071 3.38336C5.44492 2.90591 4.81418 2.43543 4.19131 1.95438C4.0787 1.86739 4.01711 1.87683 3.91843 1.97326C3.39761 2.48241 2.87208 2.98683 2.3407 3.48474C2.231 3.58769 2.231 3.65827 2.3081 3.78123C2.72125 4.44144 3.12068 5.11018 3.53271 5.77106C3.69635 6.03338 3.72782 6.29526 3.58576 6.57063C3.38503 6.95951 3.20745 7.35828 3.05303 7.76762C2.94536 8.05265 2.73136 8.20483 2.43937 8.25294C1.69265 8.37635 0.945931 8.50088 0.197636 8.61327C0.0501803 8.6353 -0.000170537 8.68004 0.00140293 8.83312C0.00904547 9.56121 0.00904547 10.2897 5.42432e-05 11.0178C-0.00196878 11.1693 0.0524281 11.2177 0.191343 11.2464C0.89558 11.3926 1.59667 11.5537 2.30113 11.6989C2.66011 11.7731 2.90107 11.957 3.01032 12.3185C3.13485 12.73 3.29826 13.1288 3.50124 13.5085C3.67342 13.8299 3.64802 14.1226 3.45583 14.4299C3.07415 15.0397 2.71271 15.6622 2.33665 16.2754C2.26652 16.3894 2.26764 16.4566 2.37216 16.5532C2.90647 17.048 3.43493 17.5493 3.95777 18.0562C4.06454 18.1596 4.1313 18.1643 4.24886 18.0726C4.78743 17.6524 5.33725 17.2465 5.87672 16.8273C6.16332 16.6045 6.45733 16.5562 6.78821 16.7176C7.08806 16.8637 7.39804 16.9882 7.71655 17.0878C8.05889 17.195 8.23961 17.429 8.29446 17.777C8.39988 18.4439 8.51542 19.1093 8.6141 19.7774C8.63748 19.937 8.67771 20.0028 8.85709 19.9999C9.57773 19.988 10.2986 19.9902 11.0195 19.9988C11.1692 20.0004 11.2207 19.952 11.2503 19.8095C11.3928 19.1196 11.5477 18.4322 11.6976 17.7439C11.7482 17.5113 11.835 17.2883 12.0625 17.1876C12.5296 16.9815 13.0065 16.7974 13.4813 16.6088C13.5314 16.5887 13.5919 16.595 13.595 16.5962H13.5952C13.8389 16.5849 13.9864 16.6681 14.13 16.7643C14.7221 17.1608 15.3171 17.5526 15.9051 17.955C16.019 18.0328 16.0818 18.0312 16.1825 17.9321C16.7017 17.4216 17.2248 16.9147 17.7591 16.4199C17.887 16.3017 17.8607 16.2318 17.7775 16.1133C17.3725 15.5363 16.978 14.9516 16.5743 14.3735C16.3825 14.0988 16.3481 13.8182 16.4992 13.5159C16.7017 13.1111 16.8701 12.6925 17.0112 12.262C17.107 11.9707 17.3097 11.7985 17.6143 11.7336C18.3467 11.5771 19.0761 11.4065 19.8093 11.255C19.9586 11.2244 19.9988 11.1698 19.9974 11.0237C19.9907 10.303 19.9885 9.58189 19.9999 8.86122ZM10.0001 15.777C6.80956 15.777 4.22323 13.1906 4.22323 9.99999C4.22323 6.80935 6.80956 4.22294 10.0001 4.22294C13.1906 4.22294 15.777 6.80935 15.777 9.99999C15.777 13.1906 13.1906 15.777 10.0001 15.777Z" fill="white"/>
</svg>
