<svg width="22" height="17" viewBox="0 0 22 17" fill="none" xmlns="http://www.w3.org/2000/svg">
<path d="M10.963 3.5C10.963 5.433 9.39029 7 7.45025 7C5.51021 7 3.9375 5.433 3.9375 3.5C3.9375 1.567 5.51021 0 7.45025 0C9.39029 0 10.963 1.567 10.963 3.5Z" fill="white"/>
<path fill-rule="evenodd" clip-rule="evenodd" d="M7.45025 6.04346C8.86008 6.04346 10.003 4.90471 10.003 3.5C10.003 2.09529 8.86008 0.95654 7.45025 0.95654C6.04042 0.95654 4.89752 2.09529 4.89752 3.5C4.89752 4.90471 6.04042 6.04346 7.45025 6.04346ZM7.45025 7C9.39029 7 10.963 5.433 10.963 3.5C10.963 1.567 9.39029 0 7.45025 0C5.51021 0 3.9375 1.567 3.9375 3.5C3.9375 5.433 5.51021 7 7.45025 7Z" fill="white"/>
<path fill-rule="evenodd" clip-rule="evenodd" d="M9.60396 8.29147C8.92187 8.10247 8.19923 8.00098 7.45109 8.00098C3.65897 8.00098 0.521783 10.6087 0 14.001H9.76233C9.24987 13.1184 8.95656 12.0937 8.95656 11.0007C8.95656 10.0259 9.1899 9.1053 9.60396 8.29147Z" fill="white"/>
<path fill-rule="evenodd" clip-rule="evenodd" d="M8.28804 9.00608C8.01427 8.97405 7.73496 8.95752 7.45109 8.95752C4.53118 8.95752 2.11188 10.6965 1.23637 13.0444H8.30296C8.10372 12.3977 7.99653 11.7112 7.99653 11.0007C7.99653 10.3083 8.09834 9.63854 8.28804 9.00608ZM9.23762 9.18375C9.05506 9.7569 8.95656 10.3673 8.95656 11.0007C8.95656 11.7184 9.08301 12.4066 9.31492 13.0444C9.43621 13.3781 9.58635 13.6979 9.76233 14.001H0C0.0502456 13.6743 0.124744 13.3549 0.221744 13.0444C1.13205 10.1306 4.02413 8.00098 7.45109 8.00098C7.8545 8.00098 8.2505 8.03049 8.63672 8.08731C8.96676 8.13587 9.28967 8.20438 9.60396 8.29147C9.45891 8.57655 9.33605 8.87473 9.23762 9.18375Z" fill="white"/>
<path fill-rule="evenodd" clip-rule="evenodd" d="M15.9789 16.0435C18.7745 16.0435 21.0407 13.7854 21.0407 11C21.0407 8.21457 18.7745 5.95654 15.9789 5.95654C13.1833 5.95654 10.9171 8.21457 10.9171 11C10.9171 13.7854 13.1833 16.0435 15.9789 16.0435ZM15.9789 17C19.3047 17 22.0007 14.3137 22.0007 11C22.0007 7.68629 19.3047 5 15.9789 5C12.6531 5 9.95703 7.68629 9.95703 11C9.95703 14.3137 12.6531 17 15.9789 17Z" fill="white"/>
<path fill-rule="evenodd" clip-rule="evenodd" d="M18.4688 11.0002C18.4688 11.2644 18.2538 11.4785 17.9887 11.4785H12.9705C12.7054 11.4785 12.4905 11.2644 12.4905 11.0002C12.4905 10.7361 12.7054 10.522 12.9705 10.522H17.9887C18.2538 10.522 18.4688 10.7361 18.4688 11.0002Z" fill="white"/>
<path fill-rule="evenodd" clip-rule="evenodd" d="M16.144 13.3384C15.9565 13.1517 15.9565 12.8488 16.144 12.6621L17.8119 11.0002L16.144 9.33843C15.9565 9.15166 15.9565 8.84883 16.144 8.66206C16.3314 8.47528 16.6354 8.47528 16.8228 8.66206L18.8301 10.6621C19.0176 10.8488 19.0176 11.1517 18.8301 11.3384L16.8228 13.3384C16.6354 13.5252 16.3314 13.5252 16.144 13.3384Z" fill="white"/>
</svg>
