<svg width="35" height="35" viewBox="0 0 35 35" fill="none" xmlns="http://www.w3.org/2000/svg">
<path fill-rule="evenodd" clip-rule="evenodd" d="M17.5 34C26.6127 34 34 26.6127 34 17.5C34 8.3873 26.6127 1 17.5 1C8.3873 1 1 8.3873 1 17.5C1 26.6127 8.3873 34 17.5 34ZM17.5 35C27.165 35 35 27.165 35 17.5C35 7.83502 27.165 0 17.5 0C7.83502 0 0 7.83502 0 17.5C0 27.165 7.83502 35 17.5 35Z" fill="#8F8F8F"/>
<path fill-rule="evenodd" clip-rule="evenodd" d="M25 21.0345C24.4647 21.1665 23.9066 21.2363 23.3329 21.2363C19.3277 21.2363 16.0808 17.8333 16.0808 13.6354C16.0808 11.8905 16.6418 10.2829 17.585 9C14.3834 9.78939 12 12.8025 12 16.3991C12 20.597 15.2469 24 19.2521 24C21.5925 24 23.674 22.838 25 21.0345Z" fill="#8F8F8F"/>
</svg>
