<svg width="35" height="35" viewBox="0 0 35 35" fill="none" xmlns="http://www.w3.org/2000/svg">
<circle cx="17.5" cy="17.5" r="17" stroke="#8F8F8F"/>
<circle cx="17.6877" cy="17.6877" r="4.76578" fill="#8F8F8F"/>
<path fill-rule="evenodd" clip-rule="evenodd" d="M24.8211 18.1555C24.8311 18.0008 24.8362 17.8447 24.8362 17.6875C24.8362 17.5303 24.8311 17.3742 24.8211 17.2195L29.3505 16.9268C29.3668 17.1789 29.375 17.4325 29.375 17.6875C29.375 17.9425 29.3668 18.1961 29.3505 18.4482L24.8211 18.1555ZM23.0622 12.974L26.4736 9.98002C26.1378 9.5975 25.7775 9.23718 25.395 8.90145L22.401 12.3128C22.6355 12.5186 22.8564 12.7395 23.0622 12.974ZM18.1555 10.5539L18.4482 6.02452C18.1961 6.00823 17.9425 6 17.6875 6C17.4325 6 17.1789 6.00823 16.9268 6.02452L17.2195 10.5539C17.3742 10.5439 17.5303 10.5388 17.6875 10.5388C17.8447 10.5388 18.0008 10.5439 18.1555 10.5539ZM12.974 12.3128L9.98002 8.90145C9.5975 9.23718 9.23718 9.5975 8.90145 9.98003L12.3128 12.974C12.5186 12.7395 12.7395 12.5186 12.974 12.3128ZM10.5539 17.2195C10.5439 17.3742 10.5388 17.5303 10.5388 17.6875C10.5388 17.8447 10.5439 18.0008 10.5539 18.1555L6.02452 18.4482C6.00823 18.1961 6 17.9425 6 17.6875C6 17.4325 6.00823 17.1789 6.02452 16.9268L10.5539 17.2195ZM12.3128 22.401L8.90145 25.395C9.23718 25.7775 9.5975 26.1378 9.98003 26.4736L12.974 23.0622C12.7395 22.8564 12.5186 22.6355 12.3128 22.401ZM17.2195 24.8211L16.9268 29.3505C17.1789 29.3668 17.4325 29.375 17.6875 29.375C17.9425 29.375 18.1961 29.3668 18.4482 29.3505L18.1555 24.8211C18.0008 24.8311 17.8447 24.8362 17.6875 24.8362C17.5303 24.8362 17.3742 24.8311 17.2195 24.8211ZM22.401 23.0622L25.395 26.4736C25.7775 26.1378 26.1378 25.7775 26.4736 25.395L23.0622 22.401C22.8564 22.6355 22.6355 22.8564 22.401 23.0622Z" fill="#8F8F8F"/>
</svg>
