<svg width="32" height="13" viewBox="0 0 32 13" fill="none" xmlns="http://www.w3.org/2000/svg">
<path fill-rule="evenodd" clip-rule="evenodd" d="M23.5 2C23.5 2.27614 23.7239 2.5 24 2.5H31C31.2761 2.5 31.5 2.27614 31.5 2C31.5 1.72386 31.2761 1.5 31 1.5H24C23.7239 1.5 23.5 1.72386 23.5 2Z" fill="white"/>
<path fill-rule="evenodd" clip-rule="evenodd" d="M23.5 5C23.5 5.27614 23.7239 5.5 24 5.5H28C28.2761 5.5 28.5 5.27614 28.5 5C28.5 4.72386 28.2761 4.5 28 4.5H24C23.7239 4.5 23.5 4.72386 23.5 5Z" fill="white"/>
<path fill-rule="evenodd" clip-rule="evenodd" d="M23.5 8C23.5 8.27614 23.7239 8.5 24 8.5H26C26.2761 8.5 26.5 8.27614 26.5 8C26.5 7.72386 26.2761 7.5 26 7.5H24C23.7239 7.5 23.5 7.72386 23.5 8Z" fill="white"/>
<path d="M9.8855 10V9.65121C9.35496 9.60927 9.02863 9.2649 9 8.76821H9.35115C9.37786 9.08389 9.60496 9.25166 9.8855 9.28477V8.11921L9.77863 8.0883C9.34351 7.9426 9.07634 7.68653 9.07634 7.25386C9.07634 6.7638 9.42176 6.42384 9.8855 6.36645V6H10.1069V6.35762C10.5992 6.39514 10.9466 6.74393 10.9618 7.2053H10.626C10.5992 6.92053 10.3931 6.74614 10.1069 6.71523V7.81015L10.2176 7.84547C10.5153 7.93377 11 8.13245 11 8.72848C11 9.21854 10.6794 9.60706 10.1069 9.65121V10H9.8855ZM9.4084 7.2362C9.4084 7.54305 9.67939 7.67329 9.8855 7.73951V6.71965C9.59351 6.766 9.4084 6.96909 9.4084 7.2362ZM10.1069 9.28477C10.4313 9.24724 10.6641 9.03311 10.6641 8.71965C10.6641 8.4106 10.4084 8.29139 10.1183 8.19426L10.1069 8.18985V9.28477Z" fill="white"/>
<rect x="0.5" y="3.5" width="19" height="9" rx="0.5" stroke="white"/>
<path fill-rule="evenodd" clip-rule="evenodd" d="M4.5 1C4.5 0.723858 4.72386 0.5 5 0.5H21C21.8284 0.5 22.5 1.17157 22.5 2V9C22.5 9.27614 22.2761 9.5 22 9.5C21.7239 9.5 21.5 9.27614 21.5 9V2C21.5 1.72386 21.2761 1.5 21 1.5H5C4.72386 1.5 4.5 1.27614 4.5 1Z" fill="white"/>
<mask id="path-7-inside-1_693_11940" fill="white">
<path fill-rule="evenodd" clip-rule="evenodd" d="M12.6458 11C13.4762 10.2671 14 9.19469 14 8C14 6.80531 13.4762 5.73294 12.6458 5H17C17.5523 5 18 5.44772 18 6V10C18 10.5523 17.5523 11 17 11H12.6458ZM7.35418 11H3C2.44772 11 2 10.5523 2 10V6C2 5.44772 2.44772 5 3 5H7.35418C6.52375 5.73294 6 6.80531 6 8C6 9.19469 6.52375 10.2671 7.35418 11Z"/>
</mask>
<path fill-rule="evenodd" clip-rule="evenodd" d="M12.6458 11C13.4762 10.2671 14 9.19469 14 8C14 6.80531 13.4762 5.73294 12.6458 5H17C17.5523 5 18 5.44772 18 6V10C18 10.5523 17.5523 11 17 11H12.6458ZM7.35418 11H3C2.44772 11 2 10.5523 2 10V6C2 5.44772 2.44772 5 3 5H7.35418C6.52375 5.73294 6 6.80531 6 8C6 9.19469 6.52375 10.2671 7.35418 11Z" fill="white"/>
<path d="M12.6458 11L11.9841 10.2503L10.0016 12H12.6458V11ZM12.6458 5V4H10.0016L11.9841 5.74974L12.6458 5ZM7.35418 11V12H9.99835L8.01591 10.2503L7.35418 11ZM7.35418 5L8.01591 5.74974L9.99835 4H7.35418V5ZM13 8C13 8.89588 12.6086 9.69909 11.9841 10.2503L13.3076 11.7497C14.3439 10.835 15 9.49351 15 8H13ZM11.9841 5.74974C12.6086 6.30091 13 7.10412 13 8H15C15 6.50649 14.3439 5.16498 13.3076 4.25026L11.9841 5.74974ZM12.6458 6H17V4H12.6458V6ZM17 6H19C19 4.89543 18.1046 4 17 4V6ZM17 6V10H19V6H17ZM17 10V12C18.1046 12 19 11.1046 19 10H17ZM17 10H12.6458V12H17V10ZM7.35418 10H3V12H7.35418V10ZM3 10H1C1 11.1046 1.89543 12 3 12V10ZM3 10V6H1V10H3ZM3 6V6V4C1.89543 4 1 4.89543 1 6H3ZM3 6H7.35418V4H3V6ZM7 8C7 7.10412 7.39144 6.30091 8.01591 5.74974L6.69244 4.25026C5.65607 5.16498 5 6.50649 5 8H7ZM8.01591 10.2503C7.39144 9.69909 7 8.89588 7 8H5C5 9.49351 5.65607 10.835 6.69244 11.7497L8.01591 10.2503Z" fill="white" mask="url(#path-7-inside-1_693_11940)"/>
</svg>
