<svg width="19" height="19" viewBox="0 0 19 19" fill="none" xmlns="http://www.w3.org/2000/svg">
<path fill-rule="evenodd" clip-rule="evenodd" d="M9.5 17.8824C14.1294 17.8824 17.8824 14.1294 17.8824 9.5C17.8824 4.87055 14.1294 1.11765 9.5 1.11765C4.87055 1.11765 1.11765 4.87055 1.11765 9.5C1.11765 14.1294 4.87055 17.8824 9.5 17.8824ZM9.5 19C14.7467 19 19 14.7467 19 9.5C19 4.25329 14.7467 0 9.5 0C4.25329 0 0 4.25329 0 9.5C0 14.7467 4.25329 19 9.5 19Z" fill="white"/>
<path d="M8.48711 11.321C8.49892 9.64226 8.8888 9.11428 9.59767 8.61337C10.1057 8.2343 10.4956 7.81462 10.4956 7.19186C10.4956 6.51496 10.0348 6.0682 9.46771 6.0682C8.91243 6.0682 8.40441 6.48788 8.38078 7.28663H6.70312C6.73857 5.37776 7.96727 4.4707 9.47952 4.4707C11.1217 4.4707 12.2914 5.45899 12.2914 7.12417C12.2914 8.2343 11.7952 8.95182 11.0154 9.47981C10.3538 9.9401 10.0584 10.3733 10.0466 11.321V11.4699H8.48711V11.321ZM9.3023 14.5295C8.74702 14.5295 8.29808 14.0151 8.30989 13.3923C8.29808 12.7696 8.74702 12.2687 9.3023 12.2687C9.82214 12.2687 10.2829 12.7696 10.2829 13.3923C10.2829 14.0151 9.82214 14.5295 9.3023 14.5295Z" fill="white"/>
</svg>
