<svg width="30" height="18" viewBox="0 0 30 18" fill="none" xmlns="http://www.w3.org/2000/svg">
<path d="M27.1986 1H2.80139C1.80651 1 1 1.80535 1 2.79879V15.2012C1 16.1947 1.80651 17 2.80139 17H27.1986C28.1935 17 29 16.1947 29 15.2012V2.79879C29 1.80535 28.1935 1 27.1986 1Z" fill="#41479B"/>
<path d="M15.0193 3.75586L15.2281 4.17606L15.6926 4.24394L15.356 4.5704L15.4353 5.03263L15.0193 4.81445L14.605 5.03263L14.6843 4.5704L14.3477 4.24394L14.8122 4.17606L15.0193 3.75586Z" fill="#FFDE52"/>
<path d="M15.0193 12.9688L15.2281 13.389L15.6926 13.4568L15.356 13.7833L15.4353 14.2455L15.0193 14.0273L14.605 14.2455L14.6843 13.7833L14.3477 13.4568L14.8122 13.389L15.0193 12.9688Z" fill="#FFDE52"/>
<path d="M12.7537 4.56445L12.9625 4.98465L13.427 5.05253L13.0904 5.379L13.1697 5.84122L12.7537 5.62304L12.3394 5.84122L12.4187 5.379L12.082 5.05253L12.5465 4.98465L12.7537 4.56445Z" fill="#FFDE52"/>
<path d="M12.4295 12.1602L12.6383 12.5804L13.1028 12.6482L12.7661 12.9747L12.8454 13.4369L12.4295 13.2187L12.0152 13.4369L12.0945 12.9747L11.7578 12.6482L12.2223 12.5804L12.4295 12.1602Z" fill="#FFDE52"/>
<path d="M17.1228 4.56445L17.3316 4.98465L17.7961 5.05253L17.4595 5.379L17.5388 5.84122L17.1228 5.62304L16.7085 5.84122L16.7878 5.379L16.4512 5.05253L16.9157 4.98465L17.1228 4.56445Z" fill="#FFDE52"/>
<path d="M17.4471 12.1602L17.6559 12.5804L18.1204 12.6482L17.7837 12.9747L17.863 13.4369L17.4471 13.2187L17.0327 13.4369L17.112 12.9747L16.7754 12.6482L17.2399 12.5804L17.4471 12.1602Z" fill="#FFDE52"/>
<path d="M10.9725 10.3818L11.1812 10.802L11.6458 10.8699L11.3091 11.1964L11.3884 11.6586L10.9725 11.4404L10.5581 11.6586L10.6374 11.1964L10.3008 10.8699L10.7653 10.802L10.9725 10.3818Z" fill="#FFDE52"/>
<path d="M18.9041 10.3818L19.1129 10.802L19.5774 10.8699L19.2407 11.1964L19.3201 11.6586L18.9041 11.4404L18.4898 11.6586L18.5691 11.1964L18.2324 10.8699L18.6969 10.802L18.9041 10.3818Z" fill="#FFDE52"/>
<path d="M10.9725 6.01855L11.1812 6.43876L11.6458 6.50664L11.3091 6.8331L11.3884 7.29532L10.9725 7.07714L10.5581 7.29532L10.6374 6.8331L10.3008 6.50664L10.7653 6.43876L10.9725 6.01855Z" fill="#FFDE52"/>
<path d="M18.9041 6.01855L19.1129 6.43876L19.5774 6.50664L19.2407 6.8331L19.3201 7.29532L18.9041 7.07714L18.4898 7.29532L18.5691 6.8331L18.2324 6.50664L18.6969 6.43876L18.9041 6.01855Z" fill="#FFDE52"/>
<path d="M20.2434 8.80836L19.9051 9.13321L19.9796 9.59543L19.5669 9.37402L19.1493 9.58897L19.2318 9.12674L18.8984 8.79705L19.3646 8.73402L19.5766 8.31543L19.7805 8.73725L20.2434 8.80836Z" fill="#FFDE52"/>
<path d="M11.0227 8.8258L10.6731 9.14095L10.7362 9.60479L10.3284 9.37206L9.90594 9.57408L10.0014 9.11509L9.67773 8.7757L10.1455 8.7256L10.3688 8.31348L10.5598 8.74176L11.0227 8.8258Z" fill="#FFDE52"/>
<path fill-rule="evenodd" clip-rule="evenodd" d="M3 0H27C28.6569 0 30 1.34315 30 3V15C30 16.6569 28.6569 18 27 18H3C1.34315 18 0 16.6569 0 15V3C0 1.34315 1.34315 0 3 0ZM3 1C1.89543 1 1 1.89543 1 3V15C1 16.1046 1.89543 17 3 17H27C28.1046 17 29 16.1046 29 15V3C29 1.89543 28.1046 1 27 1H3Z" fill="#F0F0F0"/>
</svg>
