<svg width="30" height="18" viewBox="0 0 30 18" fill="none" xmlns="http://www.w3.org/2000/svg">
<g id="Group 2555">
<g id="Group">
<g id="Group_2">
<path id="Vector" d="M27.1668 1H2.83317C1.82074 1 1 1.80535 1 2.79879V15.2012C1 16.1947 1.82074 17 2.83317 17H27.1668C28.1792 17 29 16.1947 29 15.2012V2.79879C29 1.80535 28.1792 1 27.1668 1Z" fill="white"/>
<path id="Vector_2" d="M10.3339 1V17H2.83317C1.82023 17 1 16.1952 1 15.2012V2.79879C1 1.80485 1.82023 1 2.83317 1H10.3339Z" fill="#73AF02"/>
<path id="Vector_3" d="M28.9999 2.79879V15.2012C28.9999 16.1952 28.1796 17 27.1667 17H19.666V1H27.1667C28.1796 1 28.9999 1.80485 28.9999 2.79879Z" fill="#FE4C55"/>
</g>
<g id="Group_3">
<path id="Vector_4" d="M12.8672 10.0963C12.8968 10.1367 13.3267 10.1545 13.4008 10.1739C13.5837 10.2191 13.7599 10.2838 13.9295 10.3646C14.2606 10.5213 14.5175 10.7476 14.8025 10.9706C14.8601 11.0159 14.9211 11.0595 14.9919 11.0789C15.2324 11.1468 15.4399 10.8607 15.5947 10.7233C15.8994 10.4551 16.2749 10.2708 16.6686 10.1674C16.7361 10.1496 17.2714 10.1076 17.2829 10.085C17.2829 10.085 16.7295 11.1209 15.2785 11.4231C14.3413 11.6187 13.3564 10.7848 12.8672 10.0963Z" fill="#73AF02"/>
<path id="Vector_5" d="M13.1885 7.5393C13.1885 7.45526 13.5394 7.389 13.5921 7.389C13.9972 7.39869 14.0829 7.9288 14.269 8.19385C14.3415 8.2989 14.549 8.53971 14.7005 8.48637C14.9344 8.40233 14.8241 7.90779 14.7532 7.75425C14.7005 7.6395 14.5441 7.46011 14.6445 7.33728C14.7335 7.229 14.9624 7.2096 15.0909 7.19183C15.6591 7.11587 16.173 7.47465 16.4563 7.93849C16.565 8.11627 16.6902 8.28597 16.7775 8.47506C16.8252 8.58011 16.8565 8.69647 16.8598 8.81284C16.8648 8.95021 16.8401 8.9793 16.7034 8.97445C16.4563 8.96475 16.2076 8.84031 15.9589 8.81122C15.7958 8.79182 15.4812 8.74657 15.3462 8.86294C15.1222 9.05526 15.5718 9.20233 15.7019 9.24435C15.9918 9.33647 16.3772 9.3995 16.6292 9.56597C16.5584 9.62253 16.4744 9.68395 16.3921 9.7292C16.1779 9.84718 15.9506 9.94576 15.7135 10.0088C15.1288 10.1672 14.5325 10.0589 14.1652 9.55142C13.9692 9.27991 13.8605 8.95991 13.793 8.63829C13.7403 8.38456 13.6942 8.04516 13.4356 7.90778C13.373 7.87384 13.1836 7.77849 13.1836 7.91748C13.1836 7.91748 13.1836 7.5393 13.1836 7.53769L13.1885 7.5393Z" fill="#DB8759"/>
<path id="Vector_6" d="M13.6016 9.50294C13.5225 9.50294 13.4435 9.47224 13.3957 9.41567C12.4552 8.29244 12.7616 6.73446 12.7748 6.6682C12.7962 6.56153 12.923 6.4888 13.0581 6.50658C13.1931 6.52436 13.2837 6.62456 13.2623 6.73123C13.259 6.74577 12.9757 8.20517 13.8075 9.19749C13.8832 9.28799 13.852 9.40921 13.7383 9.47062C13.6955 9.49325 13.6494 9.50294 13.6016 9.50294Z" fill="#73AF02"/>
</g>
</g>
<path id="Rectangle 663 (Stroke)" fill-rule="evenodd" clip-rule="evenodd" d="M3 0H27C28.6569 0 30 1.34315 30 3V15C30 16.6569 28.6569 18 27 18H3C1.34315 18 0 16.6569 0 15V3C0 1.34315 1.34315 0 3 0ZM3 1C1.89543 1 1 1.89543 1 3V15C1 16.1046 1.89543 17 3 17H27C28.1046 17 29 16.1046 29 15V3C29 1.89543 28.1046 1 27 1H3Z" fill="#F0F0F0"/>
</g>
</svg>
