<svg width="30" height="18" viewBox="0 0 30 18" fill="none" xmlns="http://www.w3.org/2000/svg">
<g id="Group 2558">
<g id="Group">
<path id="Vector" d="M29 2.8079V6.33273H1V2.8079C1 1.80893 1.80601 1 2.80139 1H27.1986C28.194 1 29 1.80893 29 2.8079Z" fill="white"/>
<path id="Vector_2" d="M29 6.33301H1V11.6674H29V6.33301Z" fill="#41479B"/>
<path id="Vector_3" d="M29 11.667V15.273C29 16.0852 28.4675 16.7707 27.7343 16.9997H2.26567C1.53249 16.7707 1 16.0852 1 15.273V11.667H29Z" fill="#FE4C55"/>
</g>
<path id="Rectangle 663 (Stroke)" fill-rule="evenodd" clip-rule="evenodd" d="M3 0H27C28.6569 0 30 1.34315 30 3V15C30 16.6569 28.6569 18 27 18H3C1.34315 18 0 16.6569 0 15V3C0 1.34315 1.34315 0 3 0ZM3 1C1.89543 1 1 1.89543 1 3V15C1 16.1046 1.89543 17 3 17H27C28.1046 17 29 16.1046 29 15V3C29 1.89543 28.1046 1 27 1H3Z" fill="#F0F0F0"/>
</g>
</svg>
