<svg width="30" height="18" viewBox="0 0 30 18" fill="none" xmlns="http://www.w3.org/2000/svg">
<path d="M27.1986 1H2.80139C1.80651 1 1 1.80132 1 2.78979V15.1302C1 16.1186 1.80651 16.92 2.80139 16.92H27.1986C28.1935 16.92 29 16.1186 29 15.1302V2.78979C29 1.80132 28.1935 1 27.1986 1Z" fill="white"/>
<path d="M15.0809 1V9.84442H1V2.78979C1 1.80082 1.80601 1 2.80139 1H15.0809Z" fill="#41479B"/>
<path d="M28.9995 2.70617H15.082V1H27.1997C28.166 1 28.9558 1.7558 28.9995 2.70617Z" fill="#FE4C55"/>
<path d="M29.0011 3.44238H15.082V5.14694H29.0011V3.44238Z" fill="#FE4C55"/>
<path d="M29.0011 5.80371H15.082V7.50988H29.0011V5.80371Z" fill="#FE4C55"/>
<path d="M15.082 9.9246V8.32617H29.0011V10.0307" fill="#FE4C55"/>
<path d="M29 10.5264H1V12.2325H29V10.5264Z" fill="#FE4C55"/>
<path d="M29 12.8887H1V14.5932H29V12.8887Z" fill="#FE4C55"/>
<path d="M28.9916 15.374C28.9091 16.2858 28.1387 16.9998 27.1983 16.9998H2.80111C1.86076 16.9998 1.09036 16.2858 1.00781 15.374H28.9916Z" fill="#FE4C55"/>
<path d="M2.71347 1.29688L2.91416 1.7005L3.36249 1.76483L3.03717 2.08001L3.11486 2.52384L2.71347 2.31318L2.31208 2.52384L2.38815 2.08001L2.06445 1.76483L2.51278 1.7005L2.71347 1.29688Z" fill="white"/>
<path d="M2.71347 3.04688L2.91416 3.4505L3.36249 3.51483L3.03717 3.83001L3.11486 4.27384L2.71347 4.06318L2.31208 4.27384L2.38815 3.83001L2.06445 3.51483L2.51278 3.4505L2.71347 3.04688Z" fill="white"/>
<path d="M2.71347 4.7959L2.91416 5.19953L3.36249 5.26546L3.03717 5.57903L3.11486 6.02286L2.71347 5.81381L2.31208 6.02286L2.38815 5.57903L2.06445 5.26546L2.51278 5.19953L2.71347 4.7959Z" fill="white"/>
<path d="M2.71347 6.5459L2.91416 6.94953L3.36249 7.01546L3.03717 7.32903L3.11486 7.77286L2.71347 7.56381L2.31208 7.77286L2.38815 7.32903L2.06445 7.01546L2.51278 6.94953L2.71347 6.5459Z" fill="white"/>
<path d="M2.71347 8.29688L2.91416 8.7005L3.36249 8.76483L3.03717 9.0784L3.11486 9.52223L2.71347 9.31318L2.31208 9.52223L2.38815 9.0784L2.06445 8.76483L2.51278 8.7005L2.71347 8.29688Z" fill="white"/>
<path d="M4.62167 2.31836L4.82075 2.72199L5.26907 2.78631L4.94537 3.09988L5.02144 3.54371L4.62167 3.33466L4.22029 3.54371L4.29636 3.09988L3.97266 2.78631L4.42098 2.72199L4.62167 2.31836Z" fill="white"/>
<path d="M4.62167 4.06836L4.82075 4.47199L5.26907 4.53631L4.94537 4.85149L5.02144 5.29371L4.62167 5.08466L4.22029 5.29371L4.29636 4.85149L3.97266 4.53631L4.42098 4.47199L4.62167 4.06836Z" fill="white"/>
<path d="M4.62167 5.81738L4.82075 6.22101L5.26907 6.28533L4.94537 6.60052L5.02144 7.04435L4.62167 6.83369L4.22029 7.04435L4.29636 6.60052L3.97266 6.28533L4.42098 6.22101L4.62167 5.81738Z" fill="white"/>
<path d="M4.62167 7.56738L4.82075 7.97101L5.26907 8.03533L4.94537 8.35052L5.02144 8.79435L4.62167 8.58369L4.22029 8.79435L4.29636 8.35052L3.97266 8.03533L4.42098 7.97101L4.62167 7.56738Z" fill="white"/>
<path d="M6.52792 1.29688L6.72862 1.7005L7.17694 1.76483L6.85324 2.08001L6.92931 2.52384L6.52792 2.31318L6.12815 2.52384L6.20422 2.08001L5.87891 1.76483L6.32723 1.7005L6.52792 1.29688Z" fill="white"/>
<path d="M6.52792 3.04688L6.72862 3.4505L7.17694 3.51483L6.85324 3.83001L6.92931 4.27384L6.52792 4.06318L6.12815 4.27384L6.20422 3.83001L5.87891 3.51483L6.32723 3.4505L6.52792 3.04688Z" fill="white"/>
<path d="M6.52792 4.7959L6.72862 5.19953L7.17694 5.26546L6.85324 5.57903L6.92931 6.02286L6.52792 5.81381L6.12815 6.02286L6.20422 5.57903L5.87891 5.26546L6.32723 5.19953L6.52792 4.7959Z" fill="white"/>
<path d="M6.52792 6.5459L6.72862 6.94953L7.17694 7.01546L6.85324 7.32903L6.92931 7.77286L6.52792 7.56381L6.12815 7.77286L6.20422 7.32903L5.87891 7.01546L6.32723 6.94953L6.52792 6.5459Z" fill="white"/>
<path d="M6.52792 8.29688L6.72862 8.7005L7.17694 8.76483L6.85324 9.0784L6.92931 9.52223L6.52792 9.31318L6.12815 9.52223L6.20422 9.0784L5.87891 8.76483L6.32723 8.7005L6.52792 8.29688Z" fill="white"/>
<path d="M8.43613 2.31836L8.63682 2.72199L9.08514 2.78631L8.75983 3.09988L8.83751 3.54371L8.43613 3.33466L8.03474 3.54371L8.11243 3.09988L7.78711 2.78631L8.23543 2.72199L8.43613 2.31836Z" fill="white"/>
<path d="M8.43613 4.06738L8.63682 4.47101L9.08514 4.53533L8.75983 4.85052L8.83751 5.29274L8.43613 5.08369L8.03474 5.29274L8.11243 4.85052L7.78711 4.53533L8.23543 4.47101L8.43613 4.06738Z" fill="white"/>
<path d="M8.43613 5.81738L8.63682 6.22101L9.08514 6.28533L8.75983 6.60052L8.83751 7.04435L8.43613 6.83369L8.03474 7.04435L8.11243 6.60052L7.78711 6.28533L8.23543 6.22101L8.43613 5.81738Z" fill="white"/>
<path d="M8.43613 7.56738L8.63682 7.97101L9.08514 8.03533L8.75983 8.35052L8.83751 8.79435L8.43613 8.58369L8.03474 8.79435L8.11243 8.35052L7.78711 8.03533L8.23543 7.97101L8.43613 7.56738Z" fill="white"/>
<path d="M10.3463 1.29688L10.547 1.7005L10.9953 1.76483L10.67 2.08001L10.7477 2.52384L10.3463 2.31318L9.9449 2.52384L10.021 2.08001L9.69727 1.76483L10.1456 1.7005L10.3463 1.29688Z" fill="white"/>
<path d="M10.3463 3.04688L10.547 3.4505L10.9953 3.51483L10.67 3.83001L10.7477 4.27384L10.3463 4.06318L9.9449 4.27384L10.021 3.83001L9.69727 3.51483L10.1456 3.4505L10.3463 3.04688Z" fill="white"/>
<path d="M10.3463 4.7959L10.547 5.19953L10.9953 5.26546L10.67 5.57903L10.7477 6.02286L10.3463 5.81381L9.9449 6.02286L10.021 5.57903L9.69727 5.26546L10.1456 5.19953L10.3463 4.7959Z" fill="white"/>
<path d="M10.3463 6.5459L10.547 6.94953L10.9953 7.01546L10.67 7.32903L10.7477 7.77286L10.3463 7.56381L9.9449 7.77286L10.021 7.32903L9.69727 7.01546L10.1456 6.94953L10.3463 6.5459Z" fill="white"/>
<path d="M10.3463 8.29688L10.547 8.7005L10.9953 8.76483L10.67 9.0784L10.7477 9.52223L10.3463 9.31318L9.9449 9.52223L10.021 9.0784L9.69727 8.76483L10.1456 8.7005L10.3463 8.29688Z" fill="white"/>
<path d="M13.8639 1.29688L14.0646 1.7005L14.5129 1.76483L14.1876 2.08001L14.2652 2.52384L13.8639 2.31318L13.4625 2.52384L13.5402 2.08001L13.2148 1.76483L13.6632 1.7005L13.8639 1.29688Z" fill="white"/>
<path d="M13.8639 3.04688L14.0646 3.4505L14.5129 3.51483L14.1876 3.83001L14.2652 4.27384L13.8639 4.06318L13.4625 4.27384L13.5402 3.83001L13.2148 3.51483L13.6632 3.4505L13.8639 3.04688Z" fill="white"/>
<path d="M13.8639 4.7959L14.0646 5.19953L14.5129 5.26546L14.1876 5.57903L14.2652 6.02286L13.8639 5.81381L13.4625 6.02286L13.5402 5.57903L13.2148 5.26546L13.6632 5.19953L13.8639 4.7959Z" fill="white"/>
<path d="M13.8639 6.5459L14.0646 6.94953L14.5129 7.01546L14.1876 7.32903L14.2652 7.77286L13.8639 7.56381L13.4625 7.77286L13.5402 7.32903L13.2148 7.01546L13.6632 6.94953L13.8639 6.5459Z" fill="white"/>
<path d="M13.8639 8.29688L14.0646 8.7005L14.5129 8.76483L14.1876 9.0784L14.2652 9.52223L13.8639 9.31318L13.4625 9.52223L13.5402 9.0784L13.2148 8.76483L13.6632 8.7005L13.8639 8.29688Z" fill="white"/>
<path d="M12.2545 2.31836L12.4536 2.72199L12.9019 2.78631L12.5782 3.09988L12.6543 3.54371L12.2545 3.33466L11.8531 3.54371L11.9292 3.09988L11.6055 2.78631L12.0538 2.72199L12.2545 2.31836Z" fill="white"/>
<path d="M12.2545 4.06836L12.4536 4.47199L12.9019 4.53631L12.5782 4.85149L12.6543 5.29371L12.2545 5.08466L11.8531 5.29371L11.9292 4.85149L11.6055 4.53631L12.0538 4.47199L12.2545 4.06836Z" fill="white"/>
<path d="M12.2545 5.81738L12.4536 6.22101L12.9019 6.28533L12.5782 6.60052L12.6543 7.04435L12.2545 6.83369L11.8531 7.04435L11.9292 6.60052L11.6055 6.28533L12.0538 6.22101L12.2545 5.81738Z" fill="white"/>
<path d="M12.2545 7.56738L12.4536 7.97101L12.9019 8.03533L12.5782 8.35052L12.6543 8.79435L12.2545 8.58369L11.8531 8.79435L11.9292 8.35052L11.6055 8.03533L12.0538 7.97101L12.2545 7.56738Z" fill="white"/>
<path fill-rule="evenodd" clip-rule="evenodd" d="M3 0H27C28.6569 0 30 1.34315 30 3V15C30 16.6569 28.6569 18 27 18H3C1.34315 18 0 16.6569 0 15V3C0 1.34315 1.34315 0 3 0ZM3 1C1.89543 1 1 1.89543 1 3V15C1 16.1046 1.89543 17 3 17H27C28.1046 17 29 16.1046 29 15V3C29 1.89543 28.1046 1 27 1H3Z" fill="#F0F0F0"/>
</svg>
