<svg width="20" height="20" viewBox="0 0 20 20" fill="none" xmlns="http://www.w3.org/2000/svg">
<rect width="20" height="20" rx="2" fill="#86EF55"/>
<path d="M8.83029 4.12329L6.01158 11.5396C5.96571 11.6601 6.06183 11.7862 6.19914 11.7862H9.34878C9.48444 11.7862 9.58028 11.9094 9.53772 12.0292L7.85731 16.757C7.81474 16.8767 7.91058 17 8.04625 17H9.20542C9.27792 17 9.34466 16.9632 9.37981 16.9043L13.975 9.1439C14.0481 9.02062 13.952 8.86977 13.8007 8.86977H10.8732C10.7309 8.86977 10.6348 8.73526 10.6898 8.61325L12.647 4.27209C12.7019 4.1506 12.6061 4.01634 12.4644 4.01557L9.01896 4C8.93437 3.99949 8.85858 4.04901 8.83029 4.12329Z" fill="white"/>
</svg>
