<svg width="17" height="17" viewBox="0 0 17 17" fill="none" xmlns="http://www.w3.org/2000/svg">
<g clip-path="url(#clip0_693_11931)">
<path d="M15.3962 9.30163C15.3962 13.5516 11.9481 16.9997 7.69811 16.9997C3.44811 16.9997 0 13.5516 0 9.30163C0 5.05163 3.44811 1.60352 7.69811 1.60352V9.30163H15.3962Z" fill="white"/>
<path d="M16.679 8.33962H8.98091C8.8045 8.33962 8.66016 8.19528 8.66016 8.01887V0.320755C8.66016 0.14434 8.8045 0 8.98091 0C13.4041 0 16.9998 3.59566 16.9998 8.01887C16.9998 8.19528 16.8554 8.33962 16.679 8.33962ZM9.30167 7.69811H16.3519C16.1883 3.88434 13.1154 0.811509 9.30167 0.647924V7.69811Z" fill="white"/>
</g>
<defs>
<clipPath id="clip0_693_11931">
<rect width="17" height="17" fill="white"/>
</clipPath>
</defs>
</svg>
