<svg width="14" height="23" viewBox="0 0 14 23" fill="none" xmlns="http://www.w3.org/2000/svg">
<path d="M6.66406 22.1328V20.2344C3.10156 20.0352 0.886719 18.1602 0.757812 15.0078H3.75781C3.88672 16.5781 5.07031 17.4453 6.66406 17.6094V12.5938L5.72656 12.3594C2.9375 11.6328 1.20312 10.2266 1.20312 7.78906C1.20312 5.01172 3.5 3.10156 6.66406 2.82031V0.898438H8.02344V2.82031C11.3047 3.01953 13.4844 4.98828 13.5312 7.69531H10.6016C10.4727 6.41797 9.5 5.60938 8.02344 5.42188V10.1562L8.79688 10.3672C11.3281 10.9531 13.7656 12.2891 13.7656 15.2422C13.7656 18.0547 11.6797 20.0234 8.02344 20.2344V22.1328H6.66406ZM4.29688 7.60156C4.29688 8.84375 5.43359 9.45312 6.66406 9.80469V5.44531C5.17578 5.65625 4.29688 6.5 4.29688 7.60156ZM8.02344 17.6094C9.65234 17.4102 10.7188 16.4961 10.7188 15.2188C10.7188 13.9766 9.64062 13.4023 8.02344 12.9453V17.6094Z" fill="white"/>
</svg>
