<svg width="30" height="18" viewBox="0 0 30 18" fill="none" xmlns="http://www.w3.org/2000/svg">
<path d="M27.1668 1H2.83317C1.82074 1 1 1.8013 1 2.78976V15.1299C1 16.1184 1.82074 16.9197 2.83317 16.9197H27.1668C28.1792 16.9197 29 16.1184 29 15.1299V2.78976C29 1.8013 28.1792 1 27.1668 1Z" fill="white"/>
<path d="M28.9997 2.78976V15.1299C28.9997 16.1189 28.4347 16.9197 27.738 16.9197H22.5762V1H27.738C28.4347 1 28.9997 1.80081 28.9997 2.78976Z" fill="#FE4C55"/>
<path d="M1 2.86984V15.21C1 16.199 1.56494 16.9998 2.26165 16.9998H7.42352V1.08008H2.26165C1.56494 1.08008 1 1.88089 1 2.86984Z" fill="#FE4C55"/>
<path d="M17.0686 10.5035L19.1538 8.8552C19.0912 8.90345 18.6876 8.64777 18.6366 8.60435C18.5098 8.49983 18.765 7.98525 18.8112 7.84856C18.8803 7.63952 18.9512 7.43047 19.0203 7.21982C18.6498 7.31791 18.2643 7.42243 17.8806 7.4562C17.5742 7.48354 17.5083 7.06705 17.4128 6.84996L16.4691 7.83892L16.3538 7.97882V5.51367L16.3291 5.58925V5.58282C16.3258 5.66001 15.8613 5.78865 15.7954 5.7983C15.6307 5.82081 15.4034 5.29498 15.3293 5.17116C15.214 4.98141 15.0987 4.79327 14.9834 4.60352C14.8138 4.94121 14.6408 5.29176 14.4135 5.59568C14.2324 5.8385 13.8684 5.61337 13.6378 5.5394V7.96756L13.5324 7.84052L12.5886 6.85157C12.4931 7.06866 12.4288 7.48514 12.1208 7.45781C11.7371 7.42404 11.3533 7.31951 10.9811 7.22142C11.0502 7.43047 11.1211 7.63952 11.1902 7.85017C11.2364 7.98686 11.4917 8.49982 11.3648 8.60596C11.3138 8.64777 10.9086 8.90506 10.8477 8.85681L12.9444 10.5147L12.9147 10.5179L12.2032 10.8235H14.7891L14.6738 13.3963H15.3326L15.2173 10.8235H17.8032L17.0719 10.5067L17.0686 10.5035Z" fill="#FE4C55"/>
<path fill-rule="evenodd" clip-rule="evenodd" d="M3 0H27C28.6569 0 30 1.34315 30 3V15C30 16.6569 28.6569 18 27 18H3C1.34315 18 0 16.6569 0 15V3C0 1.34315 1.34315 0 3 0ZM3 1C1.89543 1 1 1.89543 1 3V15C1 16.1046 1.89543 17 3 17H27C28.1046 17 29 16.1046 29 15V3C29 1.89543 28.1046 1 27 1H3Z" fill="#F0F0F0"/>
</svg>
