<svg width="133" height="28" viewBox="0 0 133 28" fill="none" xmlns="http://www.w3.org/2000/svg">
<path d="M92.1806 1.70599C92.205 1.75659 92.219 1.79324 92.2382 1.82639C92.3935 2.09861 92.5453 2.37082 92.7058 2.63955C92.7879 2.77566 92.8228 2.91874 92.8193 3.07579C92.814 3.31136 92.8123 3.54868 92.8123 3.786C92.8123 6.33191 92.814 8.87956 92.8158 11.4255C92.8158 11.5529 92.8088 11.6802 92.8053 11.8076C92.732 11.7762 92.6971 11.7343 92.6657 11.6907C91.6379 10.3035 90.6101 8.91621 89.5841 7.52896C88.1846 5.63741 86.7852 3.74761 85.3892 1.85431C85.3054 1.74089 85.2217 1.69727 85.0803 1.69727C84.159 1.70425 83.2394 1.70076 82.318 1.70076C82.2744 1.70076 82.2308 1.70774 82.168 1.71472C82.1976 1.76357 82.2133 1.79324 82.2325 1.81941C82.4262 2.09163 82.6147 2.36733 82.8154 2.63431C82.9078 2.75821 82.9445 2.88908 82.9427 3.04089C82.9358 3.54868 82.9358 4.05647 82.9358 4.56425C82.934 8.40493 82.9323 12.2456 82.9305 16.0845C82.9305 16.109 82.941 16.1352 82.9515 16.1788H83.1818C83.6983 16.1788 84.2148 16.1788 84.7296 16.1788C84.8203 16.1788 84.9093 16.1683 85.0001 16.1631C85.014 16.1439 85.028 16.1247 85.0419 16.1072C85.0437 16.0723 85.0472 16.0374 85.0472 16.0025C85.0472 12.7394 85.0454 9.47634 85.0454 6.21325C85.0454 6.04573 85.0524 5.87996 85.0559 5.71244H85.0768L85.096 5.70721C85.1239 5.73687 85.1536 5.76479 85.178 5.79795C85.6946 6.52385 86.2093 7.24976 86.7241 7.97567C88.6191 10.649 90.5159 13.3205 92.4075 15.9973C92.5034 16.1334 92.6046 16.184 92.7669 16.1823C93.3951 16.1735 94.0216 16.1788 94.6497 16.177C94.7265 16.177 94.8016 16.1666 94.8783 16.1613C94.8923 16.1421 94.9063 16.1229 94.9202 16.1055C94.922 16.0706 94.9255 16.0357 94.9255 16.0008C94.9255 11.4708 94.9254 6.94265 94.9237 2.4127C94.9237 2.23123 94.9254 2.05149 94.9272 1.87002C94.9272 1.81767 94.9272 1.76357 94.9272 1.7025H92.1789L92.1806 1.70599Z" fill="white"/>
<path d="M111.343 10.2288C111.38 10.0823 111.396 9.93045 111.417 9.78038C111.458 9.48199 111.516 9.1836 111.528 8.88521C111.54 8.58333 111.514 8.27796 111.49 7.97434C111.469 7.70212 111.441 7.42991 111.394 7.16118C111.321 6.73367 111.178 6.3236 111.005 5.92923C110.141 3.94695 108.656 2.64695 106.595 1.99956C105.95 1.79715 105.286 1.70117 104.608 1.70117C102.62 1.70466 100.633 1.70117 98.6451 1.70117H98.3555C98.3956 1.77795 98.4183 1.82506 98.4445 1.87218C98.591 2.1252 98.7359 2.37822 98.8859 2.6295C98.947 2.73419 98.9784 2.83889 98.9784 2.96279C98.9749 7.23447 98.9749 11.5044 98.9749 15.7761C98.9749 15.8878 98.9784 15.9977 98.9802 16.1094C98.9941 16.1286 99.0081 16.1495 99.0203 16.1687C99.111 16.1722 99.2 16.1809 99.2908 16.1809C100.538 16.1809 101.788 16.1809 103.035 16.1809C103.637 16.1809 104.236 16.1617 104.829 16.0326C105.379 15.9122 105.918 15.7604 106.414 15.5039C107.03 15.1846 107.63 14.8303 108.225 14.4726C108.82 14.1149 109.347 13.6699 109.802 13.1482C110.256 12.6282 110.64 12.0646 110.914 11.4224C111.08 11.0315 111.235 10.6407 111.34 10.2288H111.343ZM108.735 9.93045C108.694 10.1084 108.682 10.2952 108.661 10.4766C108.626 10.7837 108.508 11.0664 108.412 11.3561C108.152 12.1448 107.709 12.8097 107.094 13.3628C106.506 13.8915 105.812 14.1498 105.026 14.1864C104.915 14.1917 104.803 14.1934 104.691 14.1934C103.765 14.1934 102.837 14.1934 101.91 14.1934C101.835 14.1934 101.758 14.1934 101.667 14.1934V3.68695C101.73 3.68346 101.784 3.67648 101.837 3.67473C102.353 3.67473 102.868 3.66775 103.384 3.67822C103.561 3.68171 103.735 3.72359 103.911 3.74977C104.086 3.7742 104.262 3.7899 104.433 3.83004C104.665 3.88413 104.897 3.94346 105.121 4.02373C106.602 4.55245 107.649 5.55756 108.3 6.97622C108.497 7.40548 108.654 7.85394 108.691 8.3338C108.708 8.5589 108.757 8.78052 108.782 9.00387C108.815 9.31448 108.803 9.62508 108.735 9.9322V9.93045Z" fill="white"/>
<path d="M46.331 2.56786C46.4165 2.7092 46.4567 2.85055 46.4549 3.01981C46.4497 4.48035 46.4514 5.94263 46.4514 7.40317V7.63875H40.4191V1.7041H37.1211C37.1473 1.75994 37.1682 1.8088 37.1944 1.85591C37.334 2.09672 37.4701 2.33927 37.6149 2.57659C37.7039 2.72491 37.7475 2.87847 37.7406 3.05122C37.7318 3.29377 37.7336 3.53807 37.7336 3.78236C37.7336 7.78358 37.7336 11.7831 37.7336 15.7843C37.7336 15.9082 37.7336 16.0303 37.7336 16.1804C38.634 16.1804 39.5222 16.1821 40.4261 16.1786V9.69956H46.4567V16.1804H46.6015C47.3833 16.1804 48.1633 16.1804 48.945 16.1804C48.9939 16.1804 49.041 16.1717 49.0898 16.1664C49.1038 16.1472 49.1178 16.128 49.1317 16.1106C49.1335 16.0757 49.137 16.0408 49.137 16.0059C49.137 11.4759 49.137 6.94774 49.1352 2.41779C49.1352 2.23632 49.137 2.05659 49.1387 1.87511C49.1387 1.82276 49.1387 1.76867 49.1387 1.70934H45.825C45.9995 2.00773 46.16 2.29041 46.3293 2.56786H46.331Z" fill="white"/>
<path d="M76.2093 15.4958C77.0242 15.0561 77.8269 14.5936 78.5842 14.0579C78.7098 13.9689 78.7639 13.8765 78.7639 13.7159C78.7587 9.78624 78.7604 5.85483 78.7604 1.92515V1.70878H75.4433C75.4747 1.7716 75.4973 1.82569 75.527 1.87804C75.6718 2.13106 75.8167 2.38582 75.965 2.6371C76.0226 2.73656 76.047 2.83777 76.047 2.95294C76.0453 6.50046 76.0435 10.048 76.047 13.5955C76.047 13.7229 76.0139 13.7962 75.8969 13.8555C75.3717 14.119 74.8412 14.3424 74.2445 14.4034C73.7175 14.4575 73.2027 14.454 72.7002 14.2918C72.2831 14.1557 71.9097 13.9305 71.5816 13.6444C70.7824 12.9429 70.3549 12.0652 70.3567 10.9903C70.3602 7.93658 70.3602 4.88288 70.3602 1.82918C70.3602 1.78904 70.3549 1.75066 70.3514 1.70703H67.043C67.221 2.01589 67.385 2.31079 67.5612 2.59871C67.645 2.73482 67.6764 2.87093 67.6764 3.03146C67.6729 5.97348 67.6729 8.91725 67.6764 11.8593C67.6764 12.0913 67.6816 12.3287 67.7235 12.5555C67.8055 12.99 67.9224 13.414 68.1249 13.8136C68.4355 14.4244 68.8455 14.9514 69.3777 15.3841C69.8 15.7279 70.2747 15.9844 70.7772 16.1868C70.9971 16.2758 71.2274 16.3456 71.4595 16.3927C71.6811 16.4381 71.9114 16.4451 72.1365 16.466C72.6932 16.5183 73.2481 16.4695 73.796 16.391C74.2846 16.3194 74.7557 16.1536 75.2147 15.9704C75.5549 15.8343 75.8865 15.672 76.2093 15.4975V15.4958Z" fill="white"/>
<path d="M124.142 16.1871C125.001 16.1801 125.857 16.1836 126.716 16.1818C126.761 16.1818 126.805 16.1783 126.869 16.1749C124.734 11.3378 122.608 6.52517 120.485 1.71777H117.576C117.68 1.95509 117.787 2.16798 117.869 2.38959C117.94 2.58153 118.085 2.74207 117.947 2.99858C117.719 3.42435 117.562 3.88677 117.368 4.33174C117.073 5.0053 116.773 5.67711 116.475 6.35067C116.309 6.72584 116.145 7.10101 115.977 7.47443C115.796 7.87577 115.606 8.27363 115.428 8.67672C115.243 9.09725 115.072 9.52477 114.885 9.94531C114.709 10.3414 114.517 10.7323 114.342 11.1284C114.143 11.5803 113.96 12.041 113.759 12.4912C113.442 13.2049 113.114 13.9134 112.796 14.6271C112.589 15.093 112.395 15.5659 112.194 16.0353C112.177 16.0771 112.168 16.1225 112.152 16.1679C112.636 16.208 115.119 16.1906 115.271 16.1487C115.154 15.8311 115.044 15.5135 114.918 15.1994C114.881 15.1104 114.894 15.0424 114.932 14.9638C115 14.826 115.065 14.6881 115.126 14.5485C115.232 14.3042 115.332 14.0582 115.438 13.8157C115.571 13.512 115.703 13.2084 115.838 12.9065C115.941 12.6744 116.045 12.4424 116.152 12.1998H116.431C118.146 12.1998 119.862 12.1998 121.577 12.1998C121.737 12.1998 121.898 12.205 122.059 12.1998C122.148 12.1981 122.202 12.2277 122.233 12.3132C122.292 12.472 122.35 12.6326 122.42 12.7879C122.566 13.1142 122.727 13.4335 122.872 13.7616C123.048 14.1594 123.207 14.5625 123.383 14.9586C123.538 15.3094 123.713 15.6496 123.863 16.0021C123.92 16.1382 123.994 16.1853 124.14 16.1836L124.142 16.1871ZM117.033 10.228C117.741 8.62262 118.443 7.03819 119.174 5.4555C119.382 5.7504 119.485 6.08369 119.635 6.3943C119.787 6.70839 119.923 7.03121 120.061 7.35054C120.195 7.66463 120.319 7.98222 120.457 8.29457C120.598 8.61564 120.753 8.92974 120.898 9.24907C121.041 9.56665 121.179 9.88598 121.331 10.2297H117.033V10.228Z" fill="white"/>
<path d="M64.7504 2.03056C64.8098 1.93284 64.8656 1.83163 64.9354 1.70948H61.3896C61.4298 1.79847 61.4629 1.86653 61.4926 1.93807C61.5851 2.16841 61.6636 2.40572 61.77 2.63082C61.8224 2.74076 61.8206 2.81754 61.7613 2.917C60.7719 4.56251 59.786 6.20801 58.7984 7.85527C58.7722 7.90064 58.7373 7.94077 58.6971 7.99486C58.6657 7.946 58.6413 7.91285 58.6204 7.87621C58.1824 7.14157 57.7461 6.4052 57.3099 5.67056C56.5578 4.40197 55.804 3.13512 55.0571 1.86478C54.9838 1.73914 54.9036 1.69727 54.7605 1.69727C53.8461 1.70425 52.9335 1.70076 52.0191 1.70076C51.9389 1.70076 51.8586 1.70076 51.7539 1.70076C51.7836 1.75485 51.7975 1.78451 51.815 1.81243C52.3769 2.74076 52.9387 3.66908 53.5006 4.59741C54.6436 6.48197 55.7883 8.36654 56.9347 10.2511C57.0045 10.3645 57.0289 10.4762 57.0289 10.6053C57.0255 12.4149 57.0255 14.2227 57.0255 16.0322C57.0255 16.0776 57.0359 16.1229 57.0429 16.1718H59.7179C59.7179 16.0584 59.7179 15.9694 59.7179 15.8786C59.7179 14.0831 59.7145 12.2892 59.7127 10.4937C59.7127 10.3855 59.7406 10.293 59.8 10.2005C59.9867 9.90735 60.1664 9.60896 60.3461 9.31232C60.758 8.63527 61.1698 7.95822 61.5798 7.27943C62.2359 6.18882 62.8903 5.09647 63.5482 4.00761C63.9478 3.34626 64.3526 2.69015 64.7539 2.03056H64.7504Z" fill="white"/>
<path d="M132.261 16.1664V1.7041H128.945C129.085 1.94665 129.197 2.17001 129.338 2.37243C129.533 2.65337 129.587 2.95176 129.587 3.29202C129.577 7.53579 129.58 11.7778 129.58 16.0216C129.58 16.067 129.589 16.1141 129.593 16.1664H132.261Z" fill="white"/>
<path d="M79.8475 22.3897C79.8475 21.9237 79.844 21.4578 79.8422 20.9919C79.83 20.9797 79.8178 20.9692 79.8056 20.957H79.1547C78.6522 21.6393 78.1514 22.3286 77.6261 23.0318C77.1026 22.3199 76.6001 21.6393 76.101 20.9588H75.0977C75.1326 21.0129 75.15 21.0478 75.1762 21.0774C75.3315 21.245 75.3734 21.4386 75.3716 21.6672C75.3611 22.8486 75.3664 24.0317 75.3664 25.2148C75.3664 25.2601 75.3734 25.3072 75.3786 25.3509H76.0295V22.3478C76.0417 22.3443 76.0556 22.339 76.0679 22.3356C76.4901 22.9062 76.9142 23.4785 77.3365 24.0491C77.394 24.0491 77.4446 24.0421 77.4918 24.0491C77.668 24.0805 77.7657 23.9968 77.8634 23.8589C78.1828 23.4035 78.5178 22.9585 78.8458 22.5101C78.893 22.4472 78.9436 22.3879 78.9924 22.3251C79.0273 22.5921 79.0273 22.8399 79.0273 23.0894C79.0273 23.3389 79.0273 23.5902 79.0273 23.8397C79.0273 24.0962 79.0273 24.3545 79.0273 24.611C79.0273 24.8588 79.0273 25.1048 79.0273 25.3474H79.851C79.851 25.2811 79.851 25.234 79.851 25.1851C79.851 24.2533 79.851 23.3215 79.8475 22.3897Z" fill="white"/>
<path d="M92.3565 21.1365C92.3914 21.2325 92.4403 21.3337 92.442 21.4314C92.4473 22.2446 92.442 23.0595 92.442 23.8726C92.4385 23.9093 92.4333 23.9459 92.4298 23.9808C92.4159 23.9686 92.4019 23.9564 92.3879 23.9442C92.3652 23.918 92.3408 23.8918 92.3216 23.8639C91.6411 22.9391 90.9571 22.016 90.2818 21.0877C90.2015 20.9777 90.1177 20.9376 89.9869 20.9428C89.7914 20.9533 89.596 20.9463 89.4005 20.9463C89.329 20.9463 89.2575 20.9463 89.1562 20.9463C89.2103 21.0214 89.2348 21.0615 89.2662 21.0964C89.4023 21.2499 89.4389 21.4262 89.4372 21.6321C89.4285 22.8152 89.432 23.9983 89.432 25.1814C89.432 25.2355 89.4372 25.2896 89.4407 25.3506H90.0933V22.3353C90.2259 22.4522 90.3236 22.5761 90.4161 22.7018C91.0356 23.5428 91.6533 24.3839 92.2745 25.2232C92.3164 25.2808 92.3844 25.3506 92.4455 25.3559C92.6584 25.3716 92.8713 25.3628 93.0947 25.3628V20.9585H92.2588C92.2989 21.0301 92.3373 21.0789 92.3565 21.1348V21.1365Z" fill="white"/>
<path d="M119.147 21.0022C118.613 20.812 118.072 20.8032 117.562 21.0039C117.109 21.1836 116.674 21.4384 116.337 21.8153C116.131 22.0457 115.995 22.3126 115.887 22.5988C115.807 22.8152 115.805 23.0385 115.805 23.2636C115.802 23.4853 115.817 23.7016 115.891 23.9145C116.184 24.787 116.824 25.2512 117.69 25.4536C117.978 25.4309 118.267 25.4606 118.553 25.3873C118.908 25.2965 119.22 25.122 119.527 24.9336C120.161 24.5462 120.503 23.9773 120.583 23.2444C120.626 22.8466 120.548 22.4627 120.382 22.105C120.131 21.5658 119.716 21.2011 119.147 20.9987V21.0022ZM119.693 23.7121C119.616 24.1047 119.436 24.4555 119.084 24.6875C118.864 24.8324 118.616 24.8463 118.365 24.8481C117.686 24.8446 117.194 24.5218 116.87 23.9442C116.512 23.3108 116.569 22.6704 116.913 22.0526C117.119 21.6844 117.445 21.4803 117.88 21.4628C118.564 21.4367 119.241 21.763 119.55 22.4156C119.63 22.5849 119.672 22.7716 119.716 22.96C119.775 23.2218 119.742 23.4695 119.695 23.7121H119.693Z" fill="white"/>
<path d="M39.579 20.9578C39.3365 20.9368 39.0922 20.949 38.8479 20.9473C38.4448 20.9473 38.04 20.9473 37.6055 20.9473C37.6316 21.0031 37.6386 21.031 37.6543 21.0502C37.7835 21.2038 37.7974 21.3835 37.7974 21.5772C37.7922 22.7935 37.7939 24.0115 37.7939 25.2294C37.7939 25.2696 37.8009 25.308 37.8044 25.3481C37.8358 25.3551 37.855 25.3638 37.8759 25.3638C38.2878 25.3638 38.6996 25.3725 39.1096 25.3603C39.3068 25.3551 39.5075 25.3272 39.6994 25.2818C40.0606 25.1963 40.3747 25.0026 40.6801 24.7984C41.5369 24.2261 41.8929 23.1686 41.4304 22.1688C41.071 21.3923 40.4114 21.031 39.5808 20.9595L39.579 20.9578ZM40.7272 23.7043C40.6714 23.9347 40.5772 24.1458 40.4288 24.3325C40.2212 24.5943 39.9542 24.7461 39.6157 24.7513C39.2911 24.7566 38.9648 24.7513 38.628 24.7513V21.5615C38.9526 21.5493 39.258 21.5423 39.5738 21.6418C39.9106 21.7465 40.1933 21.914 40.4061 22.188C40.7569 22.6399 40.8633 23.1477 40.729 23.7043H40.7272Z" fill="white"/>
<path d="M65.1612 23.5996C65.1298 23.5595 65.1036 23.5141 65.0722 23.467C65.1106 23.4478 65.1332 23.4304 65.1594 23.4234C65.6323 23.2873 65.9447 22.9749 66.0581 22.5055C66.2134 21.8599 65.8818 21.3748 65.4648 21.1322C65.231 20.9944 64.971 20.956 64.7057 20.9525C64.1543 20.9473 63.6047 20.9473 63.0532 20.9473C63.0166 20.9473 62.9782 20.9542 62.9102 20.9595C62.9503 21.0101 62.9712 21.0328 62.9887 21.0589C63.0759 21.1846 63.1492 21.3085 63.1475 21.476C63.1405 22.7132 63.1422 23.9521 63.1422 25.1893C63.1422 25.2434 63.1492 25.2957 63.1527 25.3516H63.9676V23.6729H64.2346C64.6237 24.1912 65.0146 24.7059 65.3967 25.2277C65.4718 25.3289 65.5503 25.3725 65.6742 25.369C65.9324 25.362 66.1907 25.369 66.4472 25.3708C66.4647 25.369 66.4804 25.3655 66.4978 25.3638C66.4839 25.3394 66.4699 25.3149 66.4559 25.2905C66.0249 24.7269 65.5922 24.165 65.1612 23.6014V23.5996ZM64.8575 23.043C64.5661 23.0465 64.2765 23.043 63.9781 23.043V21.544C64.1805 21.5528 64.3532 21.5563 64.526 21.5685C64.9518 21.5999 65.3252 22.0745 65.231 22.5474C65.2083 22.6591 65.1559 22.7673 65.1018 22.8667C65.0512 22.9592 64.9745 23.0377 64.8575 23.0395V23.043Z" fill="white"/>
<path d="M126.803 25.055C126.395 24.5245 125.985 23.9958 125.569 23.4601C125.803 23.413 125.997 23.3048 126.168 23.1617C126.388 22.9785 126.548 22.7534 126.566 22.4567C126.573 22.3189 126.597 22.1845 126.576 22.0397C126.552 21.8756 126.522 21.7203 126.438 21.5772C126.194 21.1637 125.81 20.9752 125.351 20.9595C124.739 20.9386 124.126 20.956 123.514 20.956C123.43 20.9805 123.484 21.0101 123.51 21.0398C123.561 21.1794 123.662 21.2928 123.662 21.4621C123.652 22.7202 123.655 23.9766 123.653 25.2347C123.653 25.2731 123.666 25.3115 123.671 25.3499H124.484V23.6607C124.66 23.6049 124.758 23.673 124.852 23.8003C125.206 24.2819 125.571 24.7548 125.925 25.2364C125.995 25.3324 126.072 25.3691 126.187 25.3673C126.452 25.3621 126.716 25.3673 126.981 25.3673C126.993 25.3673 127.004 25.3673 127.016 25.3673C127.009 25.3534 127.004 25.3394 126.997 25.3254C126.932 25.2347 126.871 25.1422 126.805 25.055H126.803ZM125.33 23.0483C125.058 23.043 124.788 23.0395 124.515 23.0343L124.48 22.9942V21.5633C124.721 21.5371 124.957 21.5232 125.185 21.5982C125.646 21.75 125.859 22.2089 125.69 22.6818C125.658 22.7708 125.618 22.8581 125.566 22.9366C125.513 23.0151 125.428 23.05 125.33 23.0465V23.0483Z" fill="white"/>
<path d="M57.8715 20.9568C57.7964 20.9813 57.8279 21.0144 57.8628 21.0493C57.8854 21.1453 57.9378 21.2447 57.9221 21.3355C57.9011 21.4594 57.8348 21.578 57.7807 21.6949C57.6464 21.9864 57.5015 22.2725 57.3724 22.5657C57.1752 23.0141 56.9903 23.4661 56.7948 23.9145C56.6099 24.3421 56.4179 24.7661 56.2312 25.1901C56.2103 25.2372 56.1946 25.2878 56.1719 25.3542H57.1194C57.081 25.2564 57.0409 25.1727 57.0147 25.0854C57.0025 25.0453 57.0042 24.9929 57.0199 24.9546C57.1054 24.7469 57.1997 24.5427 57.2852 24.3333C57.3515 24.1728 57.3916 24.1396 57.5818 24.1396C58.0844 24.1396 58.5852 24.1414 59.0877 24.1449C59.1348 24.1449 59.1802 24.1554 59.2203 24.1606C59.4036 24.5707 59.5798 24.9685 59.7526 25.3559H60.6547C59.9969 23.8744 59.3477 22.4139 58.6986 20.9551H57.8697L57.8715 20.9568ZM57.6638 23.5359C57.8785 23.0525 58.0861 22.5849 58.3077 22.0858C58.5293 22.5831 58.7387 23.0525 58.9551 23.5359H57.6638Z" fill="white"/>
<path d="M52.6262 20.9604C52.0346 20.9343 51.4413 20.9552 50.8498 20.9552C50.7986 20.968 50.7951 21.0006 50.8393 21.0529C50.958 21.2204 50.9719 21.4071 50.9702 21.6061C50.965 22.7822 50.9684 23.9565 50.9684 25.1327V25.3508H51.8095V23.796C51.9526 23.796 52.0695 23.7995 52.1864 23.796C52.3034 23.7908 52.4203 23.7855 52.5354 23.7646C52.9176 23.6983 53.2334 23.4889 53.5266 23.2551C54.0082 22.8729 54.1338 22.2186 53.825 21.6445C53.5702 21.1698 53.1322 20.9814 52.6279 20.9587L52.6262 20.9604ZM53.0694 22.8624C52.9787 23.0876 52.8094 23.194 52.5791 23.2027C52.3295 23.2114 52.08 23.2045 51.8182 23.2045V21.5642C52.0852 21.5258 52.3417 21.5398 52.5791 21.6375C52.8146 21.7352 52.9821 21.9097 53.0746 22.1645C53.1636 22.4053 53.1671 22.6269 53.0711 22.8624H53.0694Z" fill="white"/>
<path d="M130.61 23.3765H132.321C132.363 23.1741 132.487 23.0065 132.503 22.7762H130.62V21.5565H132.306C132.384 21.3523 132.458 21.1604 132.54 20.9492C132.346 20.9492 132.173 20.9492 132 20.9492C131.22 20.9492 130.44 20.9527 129.66 20.9545C129.549 20.9789 129.625 21.0173 129.653 21.0504C129.784 21.2214 129.788 21.4186 129.786 21.6228C129.781 22.429 129.782 23.2351 129.784 24.0431C129.784 24.4601 129.788 24.8771 129.789 25.2942C129.803 25.3134 129.817 25.3343 129.83 25.3535C129.899 25.357 129.967 25.364 130.037 25.3657C130.685 25.3657 131.334 25.3657 131.981 25.3657C132.058 25.3657 132.136 25.3745 132.21 25.3605C132.257 25.3518 132.32 25.3204 132.335 25.2837C132.405 25.1197 132.461 24.9504 132.533 24.755H130.61C130.606 24.2856 130.603 23.8389 130.61 23.3782V23.3765Z" fill="white"/>
<path d="M85.8558 23.373C85.9308 23.1706 85.9971 22.9908 86.0757 22.7779H84.1684V21.553C84.3132 21.553 84.4459 21.553 84.5785 21.553C84.9554 21.5547 85.3306 21.5582 85.7075 21.56C85.7755 21.56 85.8541 21.5774 85.8837 21.4884C85.9396 21.3244 85.9937 21.1586 86.0477 20.9928C86.0355 20.9806 86.0233 20.9702 86.0129 20.9597C85.7145 20.9562 85.4178 20.9492 85.1194 20.9492C84.4825 20.9492 83.8456 20.9527 83.2087 20.9562C83.186 20.9614 83.1633 20.9684 83.1406 20.9736C83.1598 21.0016 83.179 21.0277 83.2 21.0557C83.3204 21.2371 83.3361 21.4361 83.3343 21.649C83.3256 22.4481 83.3308 23.2456 83.3308 24.0448C83.3308 24.4618 83.3343 24.8771 83.3361 25.2942C83.35 25.3134 83.364 25.3343 83.3762 25.3535C83.453 25.357 83.528 25.3657 83.6048 25.3657C84.2731 25.3657 84.9432 25.3657 85.6115 25.3657C85.7686 25.3657 85.875 25.2855 85.9308 25.1249C85.9396 25.1005 85.964 25.0813 85.9727 25.0569C86.0041 24.9644 86.032 24.8702 86.0669 24.7533H84.1597C84.1545 24.2891 84.1545 23.8406 84.1579 23.3747H85.8575L85.8558 23.373Z" fill="white"/>
<path d="M45.7042 23.3774H47.3777C47.4492 23.1838 47.5155 23.0058 47.5801 22.8295C47.5679 22.8173 47.5539 22.8051 47.5417 22.7946C47.4387 22.7911 47.3358 22.7876 47.2328 22.7859C46.7372 22.7842 46.2399 22.7824 45.7444 22.7807C45.7304 22.7685 45.7164 22.758 45.7025 22.7458V21.5522C45.7845 21.5522 45.8526 21.5522 45.9206 21.5522C46.3586 21.554 46.7948 21.5557 47.2328 21.5592C47.3009 21.5592 47.3777 21.5732 47.4091 21.4876C47.4701 21.3236 47.526 21.1578 47.5836 20.9938C47.5696 20.9816 47.5556 20.9694 47.5417 20.9572C47.5138 20.9554 47.4858 20.9502 47.4579 20.9502C46.5575 20.9502 45.6589 20.9502 44.7585 20.9502C44.7288 20.9502 44.6974 20.9572 44.6328 20.9659C44.8492 21.1945 44.8509 21.4475 44.8492 21.7093C44.8422 22.6341 44.844 23.5589 44.8422 24.4855C44.8422 24.7699 44.8422 25.0526 44.8422 25.358C44.9225 25.3615 44.9975 25.3702 45.0708 25.3702C45.6222 25.3702 46.1719 25.3702 46.7233 25.3702C46.8978 25.3702 47.0723 25.3685 47.2468 25.3702C47.3428 25.3702 47.4108 25.351 47.4178 25.2376C47.4195 25.2079 47.4457 25.1783 47.4579 25.1486C47.5033 25.0299 47.5469 24.9113 47.601 24.7664H45.7007V23.3827L45.7042 23.3774Z" fill="white"/>
<path d="M107.123 22.9572C106.906 22.8769 106.681 22.8228 106.467 22.7425C106.332 22.6919 106.203 22.6239 106.083 22.5454C105.879 22.4127 105.769 22.2295 105.8 21.9695C105.845 21.5926 106.006 21.4216 106.388 21.4705C106.725 21.5141 107.021 21.6572 107.302 21.8404C107.346 21.8683 107.393 21.891 107.454 21.9259C107.528 21.713 107.585 21.5158 107.667 21.3309C107.711 21.2314 107.683 21.1878 107.601 21.1546C107.456 21.0935 107.308 21.0447 107.165 20.9819C106.838 20.8388 106.5 20.8161 106.168 20.9243C105.954 20.9941 105.755 21.1215 105.556 21.2349C105.076 21.5036 104.886 21.9939 104.989 22.5314C105.008 22.6344 105.037 22.7286 105.102 22.8141C105.294 23.0741 105.561 23.2259 105.859 23.3271C106.036 23.3864 106.221 23.4213 106.392 23.4894C106.526 23.5417 106.657 23.6168 106.768 23.7058C107.009 23.9012 107.063 24.2572 106.919 24.5817C106.821 24.8033 106.678 24.8574 106.318 24.8417C105.95 24.8243 105.65 24.6446 105.35 24.4596C105.292 24.4247 105.235 24.3915 105.167 24.3514C105.121 24.4823 105.095 24.6027 105.041 24.7091C104.98 24.826 104.945 24.9447 104.926 25.0651C105.193 25.3094 105.523 25.4089 105.847 25.4472C106.287 25.4996 106.704 25.3774 107.095 25.1419C107.444 24.9325 107.716 24.6864 107.808 24.2746C107.945 23.6709 107.695 23.1701 107.126 22.9572H107.123Z" fill="white"/>
<path d="M98.1451 20.949C97.6443 20.949 97.1417 20.9455 96.6409 20.949C96.5764 20.949 96.4804 20.9525 96.4507 20.9926C96.3198 21.1636 96.1994 21.3451 96.0703 21.558H97.4488V25.3481H98.2219C98.2358 25.3289 98.2498 25.3097 98.2637 25.2922C98.2655 25.2504 98.269 25.2102 98.269 25.1684C98.269 24.0516 98.2672 22.9365 98.2655 21.8198C98.2655 21.7377 98.2655 21.6557 98.2655 21.551C98.3527 21.551 98.4208 21.551 98.4888 21.551C98.7104 21.5528 98.9338 21.5597 99.1554 21.5563C99.2043 21.5563 99.2811 21.5336 99.295 21.5004C99.3666 21.3346 99.4207 21.1619 99.48 20.9909C99.466 20.9787 99.4521 20.9665 99.4381 20.9542C99.0071 20.9525 98.5761 20.949 98.1433 20.9473L98.1451 20.949Z" fill="white"/>
<path d="M113.524 20.949C112.605 20.949 111.685 20.949 110.766 20.949C110.732 20.949 110.699 20.956 110.668 20.9595C110.558 21.1444 110.504 21.3399 110.438 21.5528C110.862 21.5545 111.256 21.5458 111.664 21.5597V25.3516H112.491V23.4478C112.491 23.1355 112.491 22.8231 112.491 22.509C112.491 22.1932 112.491 21.8773 112.491 21.551C112.591 21.551 112.659 21.551 112.729 21.551C112.931 21.5528 113.133 21.5563 113.334 21.558C113.397 21.558 113.465 21.5615 113.491 21.4865C113.551 21.3224 113.608 21.1567 113.667 20.9909L113.627 20.956C113.592 20.9525 113.558 20.9473 113.524 20.9473V20.949Z" fill="white"/>
<path d="M72.2548 20.9492C71.3352 20.9492 70.4156 20.9492 69.4943 20.9492C69.4611 20.9492 69.428 20.9562 69.3948 20.9597C69.2866 21.1464 69.229 21.3401 69.168 21.553C69.592 21.5547 69.9846 21.546 70.3947 21.56V25.3518H71.2183V21.5634C71.2916 21.5582 71.3457 21.5512 71.3998 21.553C71.6231 21.553 71.8465 21.5617 72.0681 21.5565C72.1205 21.5565 72.2025 21.5268 72.2199 21.4867C72.2897 21.3279 72.3403 21.1586 72.3997 20.9946C72.3857 20.9824 72.3717 20.9702 72.3578 20.9579C72.3229 20.9545 72.288 20.9492 72.2548 20.9492Z" fill="white"/>
<path d="M29.6802 26.4625C29.6802 17.879 29.6802 9.29371 29.6802 0.710203C29.6802 0.528726 29.6802 0.348994 29.6802 0.167517C29.6802 0.115168 29.6662 0.0628189 29.6575 0H29.4132C27.0418 0 24.6721 0 22.3007 0C21.7598 0 21.2921 0.181477 20.9065 0.563625C20.5505 0.917854 20.1963 1.27208 19.8403 1.62457C19.7967 1.64027 19.7548 1.65772 19.7112 1.67343C19.7129 1.67692 19.7164 1.68041 19.7182 1.68564C19.6414 1.6839 19.5646 1.68215 19.4878 1.68215C16.3521 1.68215 13.2182 1.68215 10.0824 1.68215C10.0283 1.68215 9.976 1.6839 9.9219 1.68564C9.9219 1.6839 9.92365 1.68215 9.9219 1.67866C9.89224 1.66296 9.86432 1.64725 9.83465 1.63329L9.83989 1.62457C9.48392 1.27034 9.12969 0.916109 8.77371 0.563625C8.38982 0.181477 7.92042 0 7.37948 0C5.00981 0 2.6384 0 0.26698 0H0.0244296C0.0157047 0.0628189 0.00348994 0.115168 0.00174497 0.167517C0 0.347249 0 0.528726 0 0.710203C0 9.29371 0 17.879 0 26.4625C0 26.6719 0 26.8795 0 27.0889C0.00174497 27.1029 0.00348994 27.1168 0.00697988 27.1325H7.79129C7.81572 27.1203 7.83841 27.1011 7.86284 27.0959C8.20485 27.0191 8.49975 26.8568 8.75103 26.616C9.0721 26.3072 9.38969 25.9966 9.70553 25.6825C9.77184 25.6162 9.82419 25.5376 9.88177 25.4643C9.98123 25.4661 10.0807 25.4696 10.1819 25.4696C13.3176 25.4696 16.4516 25.4696 19.5873 25.4696C19.6553 25.4696 19.7251 25.4661 19.7932 25.4643C19.8508 25.5376 19.9031 25.6162 19.9694 25.6825C20.2853 25.9966 20.6029 26.3072 20.9239 26.616C21.1752 26.8568 21.4701 27.0209 21.8121 27.0959C21.8383 27.1011 21.861 27.1203 21.8837 27.1325H29.7099C29.6977 27.1186 29.6854 27.1046 29.675 27.0889C29.675 26.8795 29.675 26.6719 29.675 26.4625H29.6802ZM27.9492 25.4539H27.677C25.3754 25.4539 23.0737 25.4539 20.7739 25.4539C20.4807 25.4539 20.1876 25.4469 19.8962 25.4452C19.863 25.4452 19.8298 25.4556 19.7967 25.4609C19.685 25.3509 19.5733 25.2427 19.4617 25.1328C19.0481 24.7192 18.6311 24.3092 18.2227 23.8921C18.1268 23.7944 18.0255 23.7473 17.8912 23.7543C17.7935 23.7595 17.6957 23.7543 17.598 23.7543C15.71 23.7543 13.8219 23.7578 11.9339 23.7508C11.6948 23.7508 11.5186 23.8101 11.3475 23.9881C10.8694 24.4907 10.3704 24.9705 9.87828 25.4591C9.84687 25.4539 9.81721 25.4452 9.7858 25.4452C9.49264 25.4469 9.19948 25.4539 8.90808 25.4539C6.60646 25.4539 4.30484 25.4539 2.00497 25.4539H1.73276V1.6996C1.80255 1.6996 1.85839 1.6996 1.91249 1.6996C4.30484 1.6996 6.6972 1.6996 9.08781 1.6996C9.32512 1.6996 9.56244 1.69611 9.79801 1.69611C9.79801 1.69611 9.79801 1.69262 9.79976 1.69262C9.83116 1.69786 9.86083 1.70309 9.89224 1.70833C9.99868 1.81128 10.1051 1.91598 10.2098 2.02068C10.6234 2.43423 11.0404 2.8443 11.4488 3.26135C11.5447 3.35907 11.6459 3.40618 11.7803 3.3992C11.878 3.39397 11.9757 3.3992 12.0735 3.3992C13.9615 3.3992 15.8496 3.39571 17.7376 3.40269C17.9767 3.40269 18.1529 3.34336 18.3239 3.16538C18.7864 2.67853 19.2715 2.21262 19.7478 1.73799C19.7915 1.72403 19.8368 1.71007 19.8805 1.69437C20.1178 1.69437 20.3551 1.69786 20.5907 1.69786C22.983 1.69786 25.3754 1.69786 27.766 1.69786C27.8201 1.69786 27.8759 1.69786 27.9457 1.69786V25.4521L27.9492 25.4539Z" fill="white"/>
<path d="M9.46038 9.38585C9.46038 9.06652 9.33475 8.78907 9.17246 8.52907C8.84964 8.01256 8.36454 7.71417 7.7887 7.55189C7.37689 7.43672 6.95286 7.39484 6.52709 7.38786C6.06642 7.37914 5.60749 7.38437 5.14682 7.38437C5.08574 7.38437 5.02467 7.39309 4.95312 7.39658V12.3436C4.99326 12.3488 5.01943 12.3558 5.04735 12.3558C5.59876 12.3558 6.14843 12.361 6.69984 12.3558C7.19192 12.3488 7.67004 12.2703 8.12199 12.0609C9.07823 11.6177 9.63663 10.7173 9.50401 9.58478C9.49703 9.51847 9.45864 9.45216 9.45864 9.38585H9.46038ZM8.34884 10.1903C8.24588 10.7382 7.90736 11.0924 7.38736 11.2722C6.96508 11.4187 6.52534 11.3908 6.06642 11.3751V8.37551C6.33514 8.39296 6.60038 8.34061 6.86736 8.40518C6.95286 8.42612 7.05058 8.40692 7.13259 8.4331C7.32454 8.49417 7.52172 8.55176 7.69447 8.64773C8.22843 8.94612 8.4675 9.5429 8.34709 10.1885L8.34884 10.1903Z" fill="white"/>
<path d="M13.6018 17.4459C13.8758 17.2906 14.059 17.0568 14.1271 16.7497C14.1655 16.5752 14.1847 16.3902 14.1759 16.2123C14.1445 15.5125 13.7851 15.0728 13.1063 14.9C12.9056 14.8494 12.6944 14.818 12.4885 14.8145C11.7783 14.8006 11.0664 14.8023 10.3562 14.7988C10.3108 14.7988 10.2637 14.8076 10.2148 14.8128V19.758C10.5848 19.7633 10.9408 19.7615 11.3037 19.7423C11.3037 19.3881 11.3037 19.0618 11.3037 18.7355C11.3037 18.4109 11.2985 18.0864 11.3107 17.7461C11.5323 17.7461 11.7277 17.7583 11.9197 17.7426C12.0732 17.7286 12.1587 17.7827 12.239 17.9101C12.5967 18.4825 12.9667 19.0461 13.3296 19.6149C13.3855 19.7022 13.4378 19.765 13.5565 19.7633C13.8967 19.758 14.2387 19.7615 14.579 19.7615C14.5895 19.7458 14.5982 19.7301 14.6087 19.7127C14.1637 19.0147 13.7065 18.3254 13.2633 17.6187C13.3942 17.5524 13.5024 17.5018 13.6036 17.4442L13.6018 17.4459ZM12.78 16.6921C12.6473 16.7462 12.5025 16.7986 12.3612 16.8055C12.0209 16.8212 11.6806 16.8108 11.3124 16.8108V15.8022C11.3543 15.7952 11.4014 15.7812 11.4468 15.783C11.801 15.7917 12.1553 15.7987 12.5077 15.8179C12.602 15.8231 12.6962 15.8633 12.7834 15.9034C12.9544 15.9819 13.0173 16.1302 13.019 16.3117C13.019 16.4897 12.9405 16.6258 12.7782 16.6921H12.78Z" fill="white"/>
<path d="M13.7333 7.38864C13.7333 7.49159 13.7333 7.56662 13.7333 7.64166C13.7333 8.56649 13.7333 9.49307 13.7367 10.4179C13.7367 10.7303 13.6216 10.992 13.3982 11.1979C13.1557 11.4213 12.8695 11.5295 12.5327 11.4352C12.072 11.3061 11.7702 10.9205 11.7702 10.4406C11.7684 9.50878 11.7702 8.57522 11.7702 7.6434C11.7702 7.56313 11.7649 7.48286 11.7614 7.39387H10.718C10.704 7.40434 10.69 7.41481 10.6778 7.42528C10.6743 7.48112 10.6673 7.53521 10.6673 7.59105C10.6673 8.28032 10.6673 8.96958 10.6673 9.6571C10.6673 9.99039 10.6551 10.3254 10.6778 10.6587C10.7214 11.3061 10.971 11.8593 11.5608 12.1786C12.3582 12.6131 13.1784 12.6044 13.9776 12.1681C14.3405 11.9709 14.5796 11.6516 14.7122 11.2642C14.8117 10.9746 14.8553 10.6744 14.8535 10.3656C14.85 9.44072 14.8535 8.51414 14.8535 7.58931C14.8535 7.52823 14.8448 7.4689 14.8396 7.38689C14.4679 7.38689 14.1119 7.37991 13.735 7.38689L13.7333 7.38864Z" fill="white"/>
<path d="M16.0721 19.7448H19.4887V18.7728H19.2654C18.6581 18.7728 18.0526 18.7728 17.4453 18.7728C17.3633 18.7728 17.2796 18.7606 17.1976 18.7536C17.1958 18.7397 17.1871 18.7344 17.1731 18.7362V17.7852H19.3212V16.8289C19.309 16.8184 19.2985 16.8097 19.2863 16.7993H17.1696V15.7767H19.4957V14.8135H16.0703V19.743L16.0721 19.7448Z" fill="white"/>
<path d="M24.5686 18.7703C23.9561 18.7703 23.3419 18.7703 22.7294 18.7703C22.6544 18.7703 22.5811 18.7633 22.4956 18.7581V17.7826H23.2198C23.4501 17.7826 23.6804 17.7826 23.909 17.7826C24.1429 17.7826 24.3767 17.7844 24.607 17.7809V16.809C23.8951 16.802 23.1953 16.8247 22.4921 16.8002V15.7794H22.7085C23.1273 15.7794 23.5443 15.7794 23.9631 15.7794C24.2353 15.7794 24.5058 15.7724 24.778 15.769C24.7885 15.7567 24.7972 15.7428 24.8077 15.7306C24.8077 15.4269 24.8077 15.1251 24.8077 14.8145H21.3945V19.7353C21.6982 19.7841 24.6245 19.7649 24.8094 19.7143V18.8244C24.799 18.8104 24.7885 18.7982 24.778 18.7843C24.7082 18.7808 24.6402 18.772 24.5704 18.772L24.5686 18.7703Z" fill="white"/>
<path d="M8.22635 14.8084C7.34165 14.8084 6.4587 14.8084 5.574 14.8101C5.37333 14.8101 5.17091 14.8154 4.97024 14.8171C4.95977 14.8311 4.9493 14.845 4.93883 14.859C4.93708 14.9358 4.93359 15.0125 4.93359 15.0876C4.93359 16.3666 4.93359 17.6475 4.93359 18.9265C4.93359 19.183 4.93708 19.4413 4.93883 19.6978C4.9493 19.7118 4.95977 19.7257 4.97024 19.7414H6.05212C6.05212 19.5216 6.05212 19.3156 6.05212 19.108C6.05212 18.8916 6.04863 18.677 6.05212 18.4606C6.05736 18.2564 6.02769 18.0488 6.0748 17.8377C6.46917 17.8377 6.85132 17.8377 7.23346 17.8377C7.61387 17.8377 7.99427 17.8324 8.3834 17.8289V16.8046H6.05386V15.7803H6.2685C6.81991 15.7803 7.36957 15.7803 7.92098 15.7803C8.1234 15.7803 8.32407 15.7734 8.52649 15.7699C8.53696 15.7577 8.54568 15.7437 8.55615 15.7315V14.8066C8.43226 14.8066 8.32931 14.8066 8.22635 14.8066V14.8084Z" fill="white"/>
<path d="M24.1925 7.38569C24.0878 7.38394 24.0354 7.43629 23.9831 7.52354C23.6707 8.05576 23.3496 8.58448 23.0321 9.11321C23.0111 9.14811 22.9849 9.17952 22.9518 9.22663C22.9116 9.16381 22.8768 9.11321 22.8471 9.05911C22.5592 8.55307 22.2695 8.04703 21.9868 7.5375C21.931 7.43629 21.8716 7.38045 21.746 7.38394C21.3639 7.39441 20.9817 7.39267 20.5996 7.39616C20.5263 7.41186 20.5577 7.44327 20.5891 7.47468C20.5943 7.4869 20.5978 7.50086 20.6048 7.51307C21.1702 8.3716 21.7338 9.23187 22.3044 10.0869C22.3812 10.2038 22.4108 10.319 22.4091 10.4568C22.4039 11.0327 22.4056 11.6103 22.4056 12.1861C22.4056 12.2385 22.4161 12.2925 22.4213 12.3554C22.6168 12.3554 22.7965 12.3606 22.978 12.3554C23.1542 12.3501 23.3339 12.3833 23.5172 12.3309V12.1146C23.5172 11.5387 23.5206 10.9611 23.5154 10.3853C23.5154 10.2684 23.5451 10.1724 23.6096 10.0764C23.9883 9.50932 24.3617 8.9422 24.7369 8.37334C24.9341 8.07146 25.1295 7.76784 25.3249 7.46596C25.3232 7.44502 25.3215 7.42408 25.3197 7.40314C24.9445 7.3979 24.5694 7.39267 24.1942 7.38569H24.1925Z" fill="white"/>
<path d="M17.0776 7.3877C16.7286 7.3877 16.3813 7.39118 16.0323 7.39467C16.0184 7.40514 16.0044 7.41736 15.9922 7.42783V8.38058H17.3777C17.3777 9.06112 17.3777 9.72072 17.3777 10.3786C17.3794 11.0347 17.369 11.6925 17.3847 12.3469H18.5032C18.5032 12.2788 18.5032 12.2248 18.5032 12.1689C18.5032 10.9858 18.5032 9.80273 18.5067 8.62139C18.5067 8.54112 18.5276 8.46085 18.5398 8.38058C18.5538 8.38058 18.5695 8.37709 18.5835 8.37709C19.0145 8.3736 19.4455 8.37186 19.8782 8.36837C19.887 8.35964 19.8939 8.35266 19.9027 8.34394V7.39991C19.8241 7.39642 19.7561 7.39118 19.688 7.39118C18.8173 7.39118 17.9466 7.38944 17.0758 7.39118L17.0776 7.3877Z" fill="white"/>
</svg>
